<?xml version="1.0" encoding="UTF-8" standalone="no"?>
<svg
   width="5000"
   height="5000"
   version="1.1"
   id="svg14"
   sodipodi:docname="70afe398-1139-416a-b7fd-a481115e89cb.svg"
   xmlns:inkscape="http://www.inkscape.org/namespaces/inkscape"
   xmlns:sodipodi="http://sodipodi.sourceforge.net/DTD/sodipodi-0.dtd"
   xmlns="http://www.w3.org/2000/svg"
   xmlns:svg="http://www.w3.org/2000/svg">
  <defs
     id="defs14" />
  <sodipodi:namedview
     id="namedview14"
     pagecolor="#ffffff"
     bordercolor="#000000"
     borderopacity="0.25"
     inkscape:showpageshadow="2"
     inkscape:pageopacity="0.0"
     inkscape:pagecheckerboard="0"
     inkscape:deskcolor="#d1d1d1" />
  <path
     d="M0 0 C41.25 0 82.5 0 125 0 C125 21.12 125 42.24 125 64 C131.27 64 137.54 64 144 64 C147.4084324 64.10919995 150.78790978 64.23099724 154.1875 64.4375 C154.94095703 64.47681641 155.69441406 64.51613281 156.47070312 64.55664062 C161.37561885 64.83219769 166.09195986 65.38649498 171 66 C171 97.02 171 128.04 171 160 C201.9840898 172.92022506 201.9840898 172.92022506 233.125 185.4375 C234.2368869 185.87677826 235.3487738 186.31605652 236.49435425 186.76864624 C328.9618776 223.29099959 422.86108649 256.25676957 611 309 C612.00166199 309.2537439 613.00332397 309.50748779 614.03533936 309.7689209 C723.17908173 337.40030388 834.39157233 357.62111732 1466 344 C1466.83599731 343.84031738 1467.67199463 343.68063477 1468.5333252 343.51611328 C1531.3978284 331.49193043 1593.41758305 314.59407989 1653.90197754 293.72277832 C1655.99176209 293.002838 1658.08306313 292.28747449 1660.17480469 291.57324219 C1717.2681909 272.04949118 1773.39529993 248.60110059 1827.02148438 220.89819336 C1829 220 1829 220 1831 220 C1830.98969254 219.4493047 1830.97938507 218.89860939 1830.96876526 218.33122635 C1830.7171281 204.88292138 1830.46674886 191.43459349 1830.21769714 177.98624039 C1830.0972164 171.48251503 1829.97632842 164.97879778 1829.85449219 158.47509766 C1829.7368077 152.19220482 1829.6202159 145.90929255 1829.50436401 139.62636566 C1829.46009794 137.23594192 1829.41544606 134.84552529 1829.37039185 132.45511627 C1829.30708714 129.0928172 1829.24518637 125.73049487 1829.18359375 122.36816406 C1829.16489227 121.39207687 1829.1461908 120.41598969 1829.12692261 119.4103241 C1829.00428402 112.60630463 1828.98026234 105.80504692 1829 99 C1844.56131247 96.58566339 1860.28402378 97 1876 97 C1876 75.88 1876 54.76 1876 33 C1916.92 33 1957.84 33 2000 33 C2000 48.7365553 1999.95607446 64.40591497 1999.5 80.125 C1999.335 86.02375 1999.17 91.9225 1999 98 C2013.19 98 2027.38 98 2042 98 C2043.15033784 111.80405405 2043.15033784 111.80405405 2043.0625 118.75 C2043.05573242 119.81347656 2043.05573242 119.81347656 2043.04882812 120.8984375 C2043.03733786 122.5989974 2043.01942182 124.29951219 2043 126 C2014.45968476 126.09624178 1985.92486582 125.82922964 1957.3862915 125.53643799 C1951.34412895 125.47483276 1945.30194646 125.41524909 1939.25976562 125.35546875 C1927.50649066 125.23889915 1915.75323855 125.12018091 1904 125 C1904 129.95 1904 134.9 1904 140 C1905.08043579 139.98518082 1906.16087158 139.97036163 1907.27404785 139.95509338 C1920.91837545 139.82897118 1934.47543371 140.49394377 1948.09375 141.27734375 C1950.46160651 141.4098762 1952.82948626 141.541994 1955.1973877 141.67372131 C1960.1223397 141.94877047 1965.04708078 142.22724574 1969.97167969 142.50854492 C1976.25972368 142.86766614 1982.5481028 143.22044436 1988.83663177 143.57096004 C1993.71135828 143.84296645 1998.5859621 144.1171183 2003.46052551 144.39203072 C2005.77917862 144.52276916 2008.09785303 144.65313046 2010.41654968 144.78309441 C2013.65737356 144.96530746 2016.89803916 145.15011523 2020.13867188 145.33569336 C2021.07915375 145.38820251 2022.01963562 145.44071167 2022.98861694 145.49481201 C2029.33994717 145.86225997 2035.66759212 146.38879674 2042 147 C2042 147.33 2042 147.66 2042 148 C2027.26782627 149.12978828 2012.51721574 149.40901987 1997.75 149.75390625 C1995.03758283 149.8191307 1992.32518836 149.88527757 1989.61279297 149.95140076 C1983.24559192 150.10610066 1976.87832146 150.25771547 1970.51101875 150.40816683 C1963.25075096 150.57987225 1955.99056946 150.75510083 1948.73039246 150.93059647 C1933.82035303 151.29092991 1918.91021043 151.64680785 1904 152 C1904.33 157.61 1904.66 163.22 1905 169 C1906.59693192 169.14589569 1908.19386383 169.29179138 1909.83918762 169.44210815 C1924.86426848 170.81591769 1939.88850799 172.19854566 1954.9119463 173.59019279 C1962.63627364 174.3054813 1970.36087115 175.01757034 1978.08618164 175.72216797 C1984.8185578 176.33621179 1991.55035344 176.95621771 1998.28151625 177.58342755 C2001.84653696 177.9154051 2005.41177889 178.24436454 2008.9777317 178.56618881 C2012.95584294 178.92532261 2016.93264581 179.29776459 2020.90942383 179.67138672 C2022.68858688 179.82891418 2022.68858688 179.82891418 2024.50369263 179.98962402 C2025.58482834 180.0933432 2026.66596405 180.19706238 2027.77986145 180.30392456 C2028.72101209 180.3905731 2029.66216272 180.47722164 2030.63183308 180.5664959 C2033 181 2033 181 2036 183 C2023.20185947 183.39639201 2010.40357798 183.78786065 1997.60510731 184.17345428 C1991.65894648 184.35274689 1985.71284192 184.53358417 1979.7668457 184.71826172 C1929.25394089 186.2850455 1929.25394089 186.2850455 1905 186 C1904.67 191.28 1904.34 196.56 1904 202 C1905.56743454 202.12306015 1907.13486908 202.2461203 1908.74980164 202.37290955 C1923.5087889 203.53203961 1938.26752707 204.69428498 1953.0260191 205.85970211 C1960.61381701 206.45879863 1968.20170029 207.05677216 1975.78979492 207.65209961 C1982.40384358 208.17101071 1989.01772209 208.69203133 1995.63140517 209.21558195 C1999.13303873 209.4927033 2002.63474819 209.76877018 2006.13666344 210.04231071 C2010.04669246 210.34776949 2013.9563401 210.65793799 2017.8659668 210.96850586 C2019.02618347 211.05841797 2020.18640015 211.14833008 2021.3817749 211.2409668 C2022.44883163 211.326483 2023.51588837 211.41199921 2024.61528015 211.50010681 C2025.53983851 211.57292846 2026.46439688 211.6457501 2027.41697216 211.72077847 C2029.99004027 211.99892337 2032.47181923 212.45221804 2035 213 C2035 213.33 2035 213.66 2035 214 C1941.96433228 217.23369805 1941.96433228 217.23369805 1906 217 C1906.01160156 217.79664062 1906.02320312 218.59328125 1906.03515625 219.4140625 C1906.04417969 220.47367188 1906.05320312 221.53328125 1906.0625 222.625 C1906.07990234 224.19121094 1906.07990234 224.19121094 1906.09765625 225.7890625 C1906.00155017 228.94903033 1905.59149361 231.89815162 1905 235 C1905.81782959 235.01458252 1906.63565918 235.02916504 1907.47827148 235.04418945 C1933.5328034 235.53835422 1959.57148412 236.44191062 1985.61235428 237.39883041 C1988.36929571 237.49979111 1991.12627674 237.59960016 1993.88327026 237.6991272 C1998.30284231 237.85894801 2002.72227903 238.02211775 2007.14163399 238.18782997 C2008.78939884 238.24923655 2010.43719884 238.30970824 2012.08503532 238.36916161 C2020.74809888 238.68290378 2029.3759584 239.07106095 2038 240 C2038 240.33 2038 240.66 2038 241 C2012.98388228 243.94124518 1987.94438694 246.61170475 1962.8840332 249.14697266 C1957.86228866 249.65525352 1952.84126519 250.17034049 1947.82036495 250.68688583 C1943.89063137 251.09007624 1939.96044673 251.48872595 1936.03012276 251.88611603 C1934.17656455 252.07425755 1932.32316899 252.26400956 1930.46995354 252.45549774 C1912.90058815 254.26768686 1912.90058815 254.26768686 1904 254 C1904 258.95 1904 263.9 1904 269 C1905.84965614 268.98538475 1905.84965614 268.98538475 1907.73667908 268.97047424 C1921.63692382 268.89567504 1935.49098269 269.28846968 1949.37890625 269.83984375 C1951.65183979 269.92740441 1953.92478418 270.01468398 1956.19773865 270.10169983 C1960.91814271 270.28327775 1965.63842907 270.4675886 1970.35864258 270.65405273 C1976.37983153 270.89177564 1982.401234 271.12347562 1988.42273045 271.3532629 C1993.09931961 271.53222894 1997.77580111 271.71388851 2002.45225334 271.89639473 C2004.67238556 271.98281296 2006.89254539 272.068525 2009.11273384 272.15348625 C2031.22446054 273.00321919 2031.22446054 273.00321919 2041 274 C2038.21671046 275.53280858 2035.90460609 276.32376943 2032.75674438 276.71385193 C2031.91638138 276.82164978 2031.07601837 276.92944763 2030.21018982 277.04051208 C2029.29600784 277.150168 2028.38182587 277.25982391 2027.43994141 277.37280273 C2026.47007797 277.49507233 2025.50021454 277.61734192 2024.5009613 277.74331665 C2021.28531681 278.146991 2018.06848607 278.54025375 2014.8515625 278.93359375 C2012.60061322 279.21433395 2010.34974971 279.49576268 2008.09896851 279.77784729 C2002.15369737 280.52123805 1996.2073921 281.25600411 1990.26080322 281.98876953 C1983.11632293 282.87054057 1975.97297765 283.76144561 1968.82958031 284.65194035 C1963.25136935 285.34726972 1957.67298275 286.04103139 1952.09390259 286.72935486 C1941.02489944 288.09879088 1929.96646045 289.5162573 1918.92426491 291.08943081 C1918.07159727 291.20893125 1917.21892963 291.32843168 1916.34042358 291.45155334 C1915.59587606 291.55772004 1914.85132854 291.66388674 1914.08421898 291.77327061 C1912 292 1912 292 1908 292 C1907.67 296.29 1907.34 300.58 1907 305 C1908.56016846 305.09796875 1910.12033691 305.1959375 1911.7277832 305.296875 C1935.25120042 306.80546088 1958.75082313 308.61831057 1982.25024414 310.45898438 C1986.92305749 310.82455359 1991.59623203 311.18490243 1996.26977539 311.54101562 C2001.9848502 311.97651021 2007.6992074 312.4204564 2013.41314125 312.8706665 C2015.57352161 313.03947947 2017.73413652 313.20531848 2019.89497948 313.36810303 C2022.88536326 313.59401134 2025.87469428 313.83078669 2028.86401367 314.0703125 C2029.75052109 314.13478577 2030.6370285 314.19925903 2031.55039978 314.26568604 C2032.36099854 314.33285828 2033.17159729 314.40003052 2034.00675964 314.46923828 C2034.70983844 314.52379181 2035.41291723 314.57834534 2036.13730145 314.634552 C2038 315 2038 315 2041 317 C2000.41 318.98 1959.82 320.96 1918 323 C1946.28152546 326.72468831 1946.28152546 326.72468831 1974.56323242 330.44799805 C1998.38186014 333.58556679 2022.1948371 336.76179719 2046 340 C2046.90524857 351.71973595 2047 363.20141859 2047 375 C1976.71 375 1906.42 375 1834 375 C1833.505 355.2 1833.505 355.2 1833 335 C1827.72 338.96 1822.44 342.92 1817 347 C1811.46533957 351.11061185 1805.91498538 355.19902022 1800.35400391 359.27392578 C1798.83152127 360.39028673 1797.31027601 361.50833801 1795.79052734 362.62841797 C1783.6792964 371.54915915 1771.24495634 379.93256266 1758.69238281 388.21826172 C1755.77026765 390.15202999 1752.86146097 392.10473013 1749.95507812 394.06201172 C1710.42285407 420.63159767 1668.83995762 444.18881954 1626.58203125 466.09765625 C1622.94497879 467.98393211 1619.31759072 469.88673305 1615.69921875 471.80859375 C1602.96215293 478.56593984 1590.06741766 484.9069867 1577 491 C1576.38360657 491.28810547 1575.76721313 491.57621094 1575.13214111 491.87304688 C1500.80765865 526.60320121 1423.13256192 557.31768494 1343.875 578.75 C1329.68174105 582.63523521 1316.99088624 588.71037504 1303.97705078 595.45800781 C1300.93146278 597.03549952 1297.86329332 598.55687078 1294.78173828 600.06225586 C1292.29464007 601.28399429 1289.82625543 602.54117844 1287.35791016 603.80029297 C1285.56022681 604.71495604 1283.75994207 605.62450823 1281.95849609 606.53173828 C1263.85209158 615.66130065 1246.30584024 625.42453588 1229 636 C1227.78038574 636.74056641 1227.78038574 636.74056641 1226.53613281 637.49609375 C1205.90433119 650.04430276 1186.12995916 664.02795937 1168 680 C1167.48453613 680.4522998 1166.96907227 680.90459961 1166.43798828 681.37060547 C1146.81436873 698.68339478 1126.74094482 721.67245036 1124.625 749.0078125 C1123.80480502 766.83309707 1130.76656708 781.58435494 1142 795 C1142.53238281 795.66644531 1143.06476563 796.33289062 1143.61328125 797.01953125 C1171.81136553 831.13988621 1223.05620322 849.13864176 1263.07592773 863.31634521 C1265.08422979 864.02992824 1267.09008468 864.75010254 1269.09570312 865.47119141 C1309.89993242 880.1052803 1351.66979916 891.70044763 1394 901 C1394.7518457 901.1652417 1395.50369141 901.3304834 1396.27832031 901.50073242 C1465.09128439 916.54128028 1534.74532329 922.39242654 1605 925 C1604.97494385 924.03779541 1604.9498877 923.07559082 1604.92407227 922.08422852 C1604.30774445 898.1464767 1603.84268875 874.20713558 1603.47089767 850.26447678 C1603.43786666 848.14848825 1603.40420722 846.03251055 1603.37039185 843.91653442 C1603.11626116 827.94348898 1602.92978634 811.97527966 1603 796 C1606.94229613 795.70676492 1610.88514479 795.42254001 1614.82861328 795.14550781 C1616.80402839 795.00504642 1618.77897997 794.85811227 1620.75390625 794.7109375 C1630.91421452 794.00325434 1640.74896052 794 1651 794 C1651 771.56 1651 749.12 1651 726 C1694.23 726 1737.46 726 1782 726 C1782 774 1782 774 1781 795 C1784.15304688 794.98839844 1787.30609375 794.97679688 1790.5546875 794.96484375 C1793.59944559 794.95705099 1796.64420258 794.95097547 1799.68896484 794.94506836 C1801.80941259 794.94003128 1803.92985685 794.93320141 1806.05029297 794.92456055 C1809.09343322 794.91246766 1812.13652766 794.90676553 1815.1796875 794.90234375 C1816.13181122 794.89718246 1817.08393494 794.89202118 1818.06491089 794.88670349 C1818.94567291 794.88662796 1819.82643494 794.88655243 1820.73388672 794.88647461 C1821.51110077 794.884254 1822.28831482 794.88203339 1823.08908081 794.87974548 C1825 795 1825 795 1827 796 C1827 805.24 1827 814.48 1827 824 C1779.15 824 1731.3 824 1682 824 C1681.67 828.95 1681.34 833.9 1681 839 C1683.20695557 839.05607422 1683.20695557 839.05607422 1685.45849609 839.11328125 C1710.3391597 839.82551259 1735.1773357 841.34968541 1760.02410889 842.79174805 C1764.85866136 843.07134689 1769.69343119 843.34708015 1774.52820778 843.62277222 C1779.22104235 843.89070169 1783.91376645 844.1605257 1788.60645676 844.43096924 C1790.83020769 844.55899967 1793.053985 844.68657291 1795.27779007 844.81365967 C1798.37622117 844.99111779 1801.4745019 845.17100786 1804.57275391 845.3515625 C1805.46947311 845.40250061 1806.36619232 845.45343872 1807.29008484 845.50592041 C1813.5402053 845.87372366 1819.76790553 846.4012749 1826 847 C1826 847.33 1826 847.66 1826 848 C1817.86252334 848.76237503 1809.76699214 849.20423889 1801.59716797 849.38891602 C1800.42154297 849.41832275 1799.24591797 849.44772949 1798.03466797 849.47802734 C1794.18724923 849.57339232 1790.33973124 849.66373772 1786.4921875 849.75390625 C1783.79800873 849.81909635 1781.1038545 849.88527766 1778.40969849 849.95140076 C1772.77986058 850.08902544 1767.14996457 850.22401091 1761.52001953 850.35717773 C1754.31994231 850.52749755 1747.11997939 850.702236 1739.92004204 850.87835789 C1733.69268521 851.03064912 1727.46527854 851.1808644 1721.23786402 851.33077502 C1719.2533777 851.37863637 1717.26889883 851.42680606 1715.28442001 851.47497749 C1711.57098997 851.5647474 1707.85752442 851.6528645 1704.14404297 851.74047852 C1702.51506577 851.78020027 1702.51506577 851.78020027 1700.85317993 851.82072449 C1694.56673463 851.96697127 1688.28816449 852.02404968 1682 852 C1682 857.94 1682 863.88 1682 870 C1684.23910156 870.1959375 1686.47820313 870.391875 1688.78515625 870.59375 C1714.84895715 872.88389219 1740.90547465 875.25478478 1766.96066284 877.640625 C1770.94830442 878.00571749 1774.93604002 878.36975674 1778.92385864 878.73291016 C1783.70286819 879.16819827 1788.48166722 879.60573093 1793.26031876 880.04493141 C1795.0482505 880.20890617 1796.83625166 880.37212601 1798.6243248 880.53455162 C1801.09862375 880.75947011 1803.57265076 880.98718091 1806.04663086 881.21557617 C1806.76796235 881.28051018 1807.48929384 881.34544418 1808.23248386 881.41234589 C1812.19103066 881.78113395 1816.08729144 882.29501069 1820 883 C1820 883.33 1820 883.66 1820 884 C1804.74672784 884.99048549 1789.49009265 885.38623018 1774.2109375 885.75390625 C1771.56864841 885.81949759 1768.92636537 885.8853333 1766.28408813 885.95140076 C1760.09048788 886.10586003 1753.89682303 886.2575423 1747.70312846 886.40816683 C1740.63870356 886.58010645 1733.57435872 886.75523334 1726.51001811 886.93059647 C1712.00676388 887.29055121 1697.50341555 887.64660574 1683 888 C1682.93941406 888.90363281 1682.87882812 889.80726563 1682.81640625 890.73828125 C1682.73261719 891.91777344 1682.64882812 893.09726563 1682.5625 894.3125 C1682.48128906 895.48425781 1682.40007813 896.65601562 1682.31640625 897.86328125 C1682 901 1682 901 1681 904 C1682.33344704 904.10391556 1682.33344704 904.10391556 1683.6938324 904.20993042 C1710.00444034 906.26437209 1736.30765073 908.40363961 1762.60766602 910.58935547 C1768.07412492 911.04348279 1773.54086715 911.49411027 1779.0076685 911.9440937 C1783.27054249 912.2956171 1787.5332016 912.64969375 1791.79580498 913.00448227 C1793.815129 913.17210375 1795.83453362 913.33875743 1797.85402107 913.50439835 C1800.64388123 913.73344937 1803.43341635 913.96612632 1806.22290039 914.19970703 C1807.0428952 914.26620453 1807.86289001 914.33270203 1808.70773315 914.4012146 C1812.53736147 914.72560665 1816.24536524 915.13421655 1820 916 C1820 916.33 1820 916.66 1820 917 C1790.90724742 918.09657628 1761.81290397 919.13311911 1732.71420288 920.05820465 C1730.643345 920.12441348 1728.57252327 920.19165895 1726.50170898 920.25921631 C1712.32854924 920.72051444 1698.18127021 921.1166497 1684 921 C1683.67 926.94 1683.34 932.88 1683 939 C1684.50542358 939.04789169 1686.01084717 939.09578339 1687.56188965 939.14512634 C1701.80221909 939.5984703 1716.04246438 940.05436501 1730.28263092 940.51279354 C1737.60227901 940.74836806 1744.92195346 940.98305453 1752.24169922 941.21557617 C1758.62903587 941.41848092 1765.01631405 941.62312748 1771.4035306 941.82977968 C1774.77872366 941.93892218 1778.15394236 942.04699071 1781.52922058 942.15348625 C1808.55806456 943.00734987 1808.55806456 943.00734987 1822 944 C1818.81381878 945.8316045 1816.13195724 946.39254844 1812.48997498 946.77200317 C1811.36972931 946.89255066 1810.24948364 947.01309814 1809.09529114 947.13729858 C1807.87073715 947.26101837 1806.64618317 947.38473816 1805.38452148 947.51220703 C1803.44503632 947.71747009 1803.44503632 947.71747009 1801.46636963 947.92687988 C1797.92384062 948.30157888 1794.38037322 948.66659144 1790.83664966 949.02979517 C1787.12857553 949.4114173 1783.42140762 949.80164994 1779.71412659 950.19088745 C1773.48971442 950.84318297 1767.26472977 951.48975184 1761.03930664 952.13232422 C1752.25725348 953.03880198 1743.47635043 953.95606085 1734.69562042 954.87525392 C1728.61520222 955.51136524 1722.53451594 956.14490781 1716.45377851 956.77795935 C1714.9788533 956.93152122 1713.50393544 957.08515368 1712.02902484 957.23885584 C1707.18163067 957.74389976 1702.3339386 958.24597684 1697.48608398 958.74658203 C1696.25950577 958.87435028 1695.03292755 959.00211853 1693.7691803 959.13375854 C1692.65175446 959.24866638 1691.53432861 959.36357422 1690.38304138 959.48196411 C1688.92380076 959.63292888 1688.92380076 959.63292888 1687.43508053 959.78694344 C1685 960 1685 960 1682 960 C1682 964.95 1682 969.9 1682 975 C1683.36546967 974.9902565 1684.73093933 974.980513 1686.13778687 974.97047424 C1700.91615047 974.89840722 1715.64785197 975.27329129 1730.4140625 975.83984375 C1732.77142246 975.92742711 1735.12879375 976.01470605 1737.48617554 976.10169983 C1742.37874601 976.28315192 1747.27119715 976.46746021 1752.16357422 976.65405273 C1758.40208473 976.89186322 1764.64080428 977.12355139 1770.87961769 977.3532629 C1775.72866365 977.53227651 1780.57760839 977.7139169 1785.42652512 977.89639473 C1787.72677515 977.98276384 1790.02704997 978.06847565 1792.32735062 978.15348625 C1815.20978946 979.00279967 1815.20978946 979.00279967 1826 980 C1826 980.33 1826 980.66 1826 981 C1799.37268307 984.65508332 1772.72381626 988.12756793 1746.05981445 991.50415039 C1740.6724235 992.18666933 1735.28583829 992.87535845 1729.89938641 993.56524372 C1725.69187561 994.10302491 1721.48381195 994.63637689 1717.27558327 995.16850853 C1715.28635464 995.42081842 1713.29733389 995.67477338 1711.30853844 995.93047523 C1708.55351437 996.28428454 1705.79776273 996.63178704 1703.04174805 996.9777832 C1702.24031876 997.08213684 1701.43888947 997.18649048 1700.61317444 997.29400635 C1695.70234748 997.90224842 1690.94885998 998.09204819 1686 998 C1685.67 1002.95 1685.34 1007.9 1685 1013 C1686.89560165 1013.07232094 1686.89560165 1013.07232094 1688.82949829 1013.14610291 C1704.23630385 1013.77035741 1719.58920802 1014.87173695 1734.9609375 1016.06640625 C1737.5750606 1016.26705665 1740.18920698 1016.46740402 1742.80337524 1016.66746521 C1748.91565054 1017.13573766 1755.02765609 1017.60743591 1761.13956511 1018.0804624 C1768.11433953 1018.62009456 1775.089417 1019.15575951 1782.06451869 1019.6911422 C1796.37667944 1020.78977683 1810.68846624 1021.89322801 1825 1023 C1822.5220242 1025.4779758 1821.65864208 1025.30106419 1818.23074341 1025.46156311 C1816.72074265 1025.53924675 1816.72074265 1025.53924675 1815.18023682 1025.61849976 C1813.51731598 1025.68951401 1813.51731598 1025.68951401 1811.82080078 1025.76196289 C1810.65650543 1025.81917007 1809.49221008 1025.87637726 1808.29263306 1025.93531799 C1804.42722411 1026.12316774 1800.56132775 1026.29776858 1796.6953125 1026.47265625 C1794.01727354 1026.60098497 1791.33928755 1026.73013266 1788.66134644 1026.86045837 C1782.31996666 1027.16748203 1775.97820124 1027.4655232 1769.63621795 1027.75979179 C1758.28328855 1028.28674211 1746.93096648 1028.82643754 1735.57896793 1029.37305444 C1730.95215779 1029.59539281 1726.32503072 1029.81016728 1721.69778442 1030.02320862 C1719.27784458 1030.13778512 1716.85791212 1030.25251766 1714.43798828 1030.36743164 C1713.33342285 1030.41679871 1712.22885742 1030.46616577 1711.09082031 1030.51702881 C1710.07851349 1030.56599808 1709.06620667 1030.61496735 1708.02322388 1030.66542053 C1707.14458742 1030.70614717 1706.26595097 1030.7468738 1705.36068916 1030.78883457 C1703.14040722 1030.98744047 1701.14052311 1031.39177277 1699 1032 C1699.64383951 1032.08153792 1700.28767902 1032.16307585 1700.95102882 1032.24708462 C1716.62559268 1034.23224454 1732.299991 1036.21870569 1747.97420692 1038.20661068 C1755.55417576 1039.16791934 1763.1341997 1040.12878943 1770.71435547 1041.08862305 C1777.32212105 1041.92532936 1783.9297812 1042.76286265 1790.53731668 1043.60138422 C1794.03511272 1044.04523873 1797.53295974 1044.4886823 1801.03093338 1044.93113518 C1804.93826575 1045.42538292 1808.84536248 1045.92147715 1812.75244141 1046.41772461 C1814.4873735 1046.63674942 1814.4873735 1046.63674942 1816.25735474 1046.86019897 C1817.32578613 1046.9962001 1818.39421753 1047.13220123 1819.49502563 1047.27232361 C1820.4186622 1047.38939132 1821.34229877 1047.50645903 1822.29392433 1047.62707424 C1825.20666782 1048.028481 1828.10198565 1048.50405258 1831 1049 C1831.17208265 1052.54142432 1831.33659865 1056.08316535 1831.5 1059.625 C1831.54769531 1060.6046875 1831.59539063 1061.584375 1831.64453125 1062.59375 C1832.00036509 1070.42209446 1832 1078.14091222 1832 1086 C1758.08 1086 1684.16 1086 1608 1086 C1606.85072802 1060.71601634 1606.85072802 1060.71601634 1606.90234375 1052.2265625 C1606.9037587 1051.28106537 1606.90517365 1050.33556824 1606.90663147 1049.36141968 C1606.9120656 1046.4492422 1606.92457985 1043.53715273 1606.9375 1040.625 C1606.94253664 1038.60546989 1606.94709564 1036.58593853 1606.95117188 1034.56640625 C1606.96197951 1029.7109055 1606.97911834 1024.85546744 1607 1020 C1606.07912598 1019.78935913 1606.07912598 1019.78935913 1605.13964844 1019.57446289 C1595.43346566 1017.2553091 1585.93335242 1014.30377161 1576.39169312 1011.39358521 C1524.62858343 995.64095071 1472.43289684 981.34371086 1420 968 C1418.99549049 967.74430111 1418.99549049 967.74430111 1417.97068787 967.48343658 C1339.02287455 947.40033438 1259.44735696 929.96342315 1120 905 C1119.32723778 904.8905732 1118.65447556 904.78114639 1117.9613266 904.66840363 C1062.49522087 895.65785136 1006.84981638 887.95584275 951 881.75 C950.29580303 881.67154594 949.59160606 881.59309189 948.86606979 881.51226044 C920.93647567 878.40363479 892.9697075 875.74212819 865 873 C861.535 807.165 861.535 807.165 858 740 C765.41338374 713.12001464 675.13085343 703.32591776 579 704 C579.04305267 705.4271508 579.04305267 705.4271508 579.0869751 706.88313293 C580.80306825 763.8251588 582.42829884 820.76947308 583.98326385 877.71610385 C584.14200481 883.52800726 584.30150396 889.33988954 584.46130371 895.15176392 C584.65812983 902.31202978 584.85375379 909.47232738 585.04788548 916.63266683 C585.14808706 920.32824438 585.24871688 924.0238088 585.35056877 927.71934128 C585.46220296 931.77142718 585.57142746 935.8235746 585.68041992 939.87573242 C585.71311604 941.05070691 585.74581215 942.2256814 585.77949905 943.43626118 C585.96149945 950.29280579 586.03962334 957.14109333 586 964 C582.44391421 963.19417354 579.83114516 961.8783606 576.6875 960 C575.62668213 959.36908447 574.56586426 958.73816895 573.47290039 958.08813477 C572.31515637 957.39227374 571.15752617 956.69622334 570 956 C568.78982366 955.27694176 567.57945221 954.55421 566.36889648 953.83178711 C554.96852612 947.01836884 543.61713486 940.12320606 532.27529907 933.21292114 C526.43714046 929.65594363 520.59334279 926.10828562 514.74899292 922.56149292 C511.83242777 920.79138098 508.91623262 919.0206597 506 917.25 C504.83333511 916.54166375 503.66666844 915.83333041 502.5 915.125 C500.16666667 913.70833333 497.83333333 912.29166667 495.5 910.875 C494.92248993 910.52436996 494.34497986 910.17373993 493.74996948 909.81248474 C492.58340067 909.10420864 491.41683573 908.39592617 490.25027466 907.68763733 C487.33214247 905.91587604 484.41394299 904.14422578 481.49560547 902.37280273 C476.26311746 899.19655026 471.03107917 896.01957141 465.80162048 892.83833313 C462.90974893 891.07917052 460.01741258 889.32077287 457.125 887.5625 C456.55703705 887.21714203 455.9890741 886.87178406 455.40390015 886.51596069 C448.57890068 882.36719438 441.74162366 878.23981144 434.88671875 874.140625 C434.2102832 873.73589462 433.53384766 873.33116425 432.83691406 872.91416931 C429.57105408 870.9605167 426.30371873 869.00941337 423.03369141 867.06274414 C421.8414265 866.35049826 420.64920435 865.6381808 419.45703125 864.92578125 C418.42553955 864.31130127 417.39404785 863.69682129 416.33129883 863.0637207 C415.23197021 862.38269287 414.1326416 861.70166504 413 861 C412.24841991 860.69783853 411.49683983 860.39567705 410.72248459 860.08435917 C407.81519841 858.69258323 406.07426794 857.48897926 404 855 C402.79031897 849.31620684 403.21539427 843.75074897 403.52905273 837.97900391 C403.59078723 836.22458114 403.64847023 834.47001181 403.70240784 832.71533203 C403.86014874 827.95737752 404.07447598 823.20346443 404.29902911 818.44825792 C404.52415252 813.47668284 404.69718517 808.50330245 404.87574768 803.52987671 C405.22170733 794.11479916 405.6144912 784.70228249 406.02412421 775.28978384 C406.48823758 764.57295173 406.90012508 753.85431216 407.30763328 743.13520169 C408.14698786 721.08761287 409.05376185 699.04323781 410 677 C401.42 677 392.84 677 384 677 C384 723.53 384 770.06 384 818 C366.61699219 818.07347656 366.61699219 818.07347656 348.8828125 818.1484375 C341.36880924 818.18249142 333.85481106 818.21681938 326.34082031 818.25341797 C325.3848025 818.25807249 324.42878469 818.26272701 323.44379663 818.26752257 C222.4141383 818.69386914 222.4141383 818.69386914 121.41220093 820.92435455 C118.10372931 821.02810661 114.79513441 821.12761467 111.48653793 821.22729206 C17.59231334 824.06235194 -76.27381259 829.04587303 -284.00854492 846.22265625 C-285.25359802 846.34322891 -286.49865112 846.46380157 -287.78143311 846.58802795 C-290.06929435 846.81020765 -292.35687936 847.03526068 -294.644104 847.26390076 C-299.79138273 847.76396022 -304.82834648 848.12438212 -310 848 C-309.99770889 848.66244217 -309.99541779 849.32488434 -309.99305725 850.00740051 C-309.94285993 866.99234066 -310.07139615 883.96813202 -310.37231445 900.95043945 C-310.43861461 904.75140014 -310.49771477 908.55243423 -310.55664062 912.35351562 C-310.59852624 914.80209076 -310.64082781 917.25065883 -310.68359375 919.69921875 C-310.70030624 920.82003342 -310.71701874 921.94084808 -310.73423767 923.09562683 C-310.75418289 924.14905777 -310.77412811 925.20248871 -310.79467773 926.2878418 C-310.81022202 927.20123825 -310.8257663 928.1146347 -310.84178162 929.05570984 C-311.03863142 932.71889316 -311.54498247 936.35985976 -312 940 C-385.92 940 -459.84 940 -536 940 C-535.67 928.12 -535.34 916.24 -535 904 C-501.4483716 899.41546452 -467.88752662 894.90977873 -434.3125 890.5 C-433.02506645 890.33090496 -433.02506645 890.33090496 -431.71162415 890.15839386 C-421.14134618 888.77025147 -410.57080481 887.38412466 -400 886 C-431.43287036 884.17962827 -462.87019434 882.46074867 -494.3125 880.8125 C-495.17592514 880.76723679 -496.03935028 880.72197357 -496.92893982 880.67533875 C-507.61919932 880.11509064 -518.30955336 879.55666575 -529 879 C-525.802385 877.14661911 -523.20481402 876.65343912 -519.53466797 876.37985229 C-518.42428162 876.29296143 -517.31389526 876.20607056 -516.16986084 876.11654663 C-514.34941254 875.98707138 -514.34941254 875.98707138 -512.4921875 875.85498047 C-511.21055725 875.75715271 -509.928927 875.65932495 -508.60845947 875.55853271 C-505.09668238 875.29070828 -501.58420836 875.03334318 -498.07151031 874.7779212 C-494.39472617 874.50886573 -490.7186488 874.23047548 -487.04248047 873.95315552 C-480.86921875 873.48877368 -474.69552577 873.03055338 -468.52148438 872.57666016 C-459.81622931 871.93666674 -451.1118528 871.28529574 -442.40760422 870.63177657 C-435.64690715 870.12462451 -428.885964 869.62076641 -422.125 869.1171875 C-421.4001516 869.0631468 -420.67530319 869.00910609 -419.92848969 868.95342779 C-415.12177639 868.5952342 -410.31485269 868.24001037 -405.5078125 867.88623047 C-403.6873642 867.75068253 -403.6873642 867.75068253 -401.83013916 867.61239624 C-400.71975281 867.53114502 -399.60936646 867.4498938 -398.46533203 867.36618042 C-397.01853561 867.25946172 -397.01853561 867.25946172 -395.54251099 867.15058708 C-393.36491248 867.02161293 -391.18141459 867 -389 867 C-389.33 862.71 -389.66 858.42 -390 854 C-397.94217077 852.48408799 -405.86602417 851.31090583 -413.89111328 850.3359375 C-415.74916847 850.1062326 -415.74916847 850.1062326 -417.64476013 849.87188721 C-420.31380649 849.54214785 -422.98296065 849.21348637 -425.65234756 848.88653564 C-429.87148151 848.36942258 -434.08984153 847.84617912 -438.30807495 847.32177734 C-450.29395676 845.8324824 -462.28046754 844.34839815 -474.26855469 842.87695312 C-480.90858927 842.06188819 -487.5477829 841.24030455 -494.18609989 840.4113636 C-498.38229296 839.8877398 -502.57937789 839.37221636 -506.77728772 838.86254883 C-509.98672834 838.4704637 -513.19465912 838.06636894 -516.40283203 837.6640625 C-517.56949905 837.52478333 -518.73616608 837.38550415 -519.93818665 837.24200439 C-521.51929985 837.04027618 -521.51929985 837.04027618 -523.13235474 836.83447266 C-524.05368761 836.72092438 -524.97502048 836.6073761 -525.92427254 836.49038696 C-526.6092626 836.32855927 -527.29425266 836.16673157 -528 836 C-528.33 835.34 -528.66 834.68 -529 834 C-516.18445531 833.49513459 -503.36888857 832.99083307 -490.55329514 832.48720646 C-484.5993217 832.2532107 -478.64535538 832.01903726 -472.69140625 831.78442383 C-458.3751053 831.22039491 -444.05868934 830.65947326 -429.74197388 830.10605621 C-427.99569125 830.03851213 -426.24941382 829.97083368 -424.50314331 829.90297699 C-419.84077714 829.72180766 -415.17827933 829.54473001 -410.515625 829.37109375 C-409.49136414 829.33129898 -408.46710327 829.29150421 -407.4118042 829.25050354 C-400.27146994 828.99126408 -393.14504105 828.97133051 -386 829 C-386 824.05 -386 819.1 -386 814 C-388.82908936 813.84132446 -388.82908936 813.84132446 -391.71533203 813.67944336 C-403.68182744 812.92030704 -415.60313294 811.57760335 -427.52718496 810.33939099 C-429.5696728 810.12735055 -431.61222228 809.91591313 -433.65478897 809.70463371 C-440.05851208 809.04200675 -446.46198667 808.37704651 -452.86512363 807.70877892 C-460.23785992 806.93935859 -467.61137581 806.17803823 -474.98564136 805.42341858 C-480.70974479 804.83716605 -486.43308118 804.24378683 -492.15588009 803.64493507 C-495.56629059 803.288224 -498.97695472 802.93459475 -502.38845444 802.58844185 C-506.17384303 802.20255593 -509.95783457 801.80505542 -513.74169922 801.40454102 C-515.44019516 801.23534401 -515.44019516 801.23534401 -517.17300415 801.06272888 C-518.19605652 800.95204071 -519.21910889 800.84135254 -520.27316284 800.72731018 C-521.61418469 800.58822408 -521.61418469 800.58822408 -522.9822979 800.44632816 C-523.64813959 800.29903987 -524.31398129 800.15175158 -525 800 C-525.33 799.34 -525.66 798.68 -526 798 C-511.56821054 797.47294861 -497.13623571 796.95124747 -482.70404148 796.43539429 C-475.99995094 796.1956778 -469.29593138 795.95424237 -462.59204102 795.70898438 C-456.10172537 795.47160258 -449.61126152 795.23871712 -443.12067986 795.00872803 C-440.6655921 794.92098513 -438.21055811 794.83172163 -435.75558662 794.74078369 C-419.49559533 794.13978922 -403.27105078 793.8889254 -387 794 C-387.33 787.73 -387.66 781.46 -388 775 C-389.35520752 775.01667725 -390.71041504 775.03335449 -392.10668945 775.05053711 C-414.52399454 775.2279509 -436.91822601 774.46472467 -459.32202148 773.77319336 C-465.09010492 773.59520102 -470.85837579 773.42438441 -476.62673473 773.25558567 C-481.1092831 773.12366195 -485.59171568 772.98809792 -490.07412148 772.85142326 C-492.20265722 772.78693793 -494.33122655 772.72355106 -496.45982933 772.66131783 C-499.42020485 772.57420714 -502.38038962 772.48220105 -505.34057617 772.38891602 C-506.2044696 772.36445908 -507.06836304 772.34000214 -507.95843506 772.31480408 C-513.03104464 772.14881024 -517.97294411 771.70410267 -523 771 C-523 770.67 -523 770.34 -523 770 C-488.5085282 767.0020222 -454.01505193 764.0337342 -419.50233841 761.28939438 C-417.43884029 761.12510671 -415.37540455 760.96005418 -413.3119812 760.79483032 C-409.47773532 760.48806604 -405.64319834 760.18506198 -401.80859375 759.8828125 C-400.67844849 759.79248245 -399.54830322 759.7021524 -398.38391113 759.60908508 C-397.34641724 759.52813095 -396.30892334 759.44717682 -395.23999023 759.36376953 C-393.89456398 759.25767868 -393.89456398 759.25767868 -392.5219574 759.14944458 C-390.01853491 759.00109833 -387.50781394 759 -385 759 C-385.66 753.72 -386.32 748.44 -387 743 C-399.70424377 742.00142479 -412.39324504 741.67824944 -425.13161278 741.3998127 C-428.9859807 741.31490807 -432.84019707 741.22485024 -436.69441223 741.13328552 C-447.64091047 740.87363415 -458.58750673 740.61908223 -469.53442383 740.37768555 C-476.25625822 740.22939929 -482.97779727 740.07116481 -489.69927406 739.90736198 C-492.25531363 739.84687683 -494.81143867 739.78989918 -497.36763573 739.73648262 C-500.92658864 739.66183232 -504.48508191 739.57555378 -508.04370117 739.48657227 C-509.0997908 739.46728165 -510.15588043 739.44799103 -511.24397278 739.42811584 C-512.21225006 739.40156921 -513.18052734 739.37502258 -514.17814636 739.34767151 C-515.01777514 739.32869088 -515.85740393 739.30971025 -516.72247601 739.29015446 C-519 739 -519 739 -523 737 C-477.79 732.71 -432.58 728.42 -386 724 C-386 718.06 -386 712.12 -386 706 C-387.32717545 706.00761353 -388.65435089 706.01522705 -390.02174377 706.02307129 C-405.92882776 706.08484771 -421.81389601 705.75688424 -437.71484375 705.34375 C-440.3948152 705.2762377 -443.07479144 705.20895362 -445.754776 705.14196777 C-452.01915463 704.98490197 -458.28345557 704.82493954 -464.54773194 704.66385221 C-471.69680138 704.48015967 -478.84595439 704.29982447 -485.99511516 704.11972713 C-500.66350362 703.75013699 -515.33178656 703.3764741 -530 703 C-529.67 702.34 -529.34 701.68 -529 701 C-513.47322519 700.10294982 -497.94636102 699.20746065 -482.41939354 698.31375217 C-475.20745111 697.8986086 -467.99553707 697.48298364 -460.78369141 697.06616211 C-454.48650791 696.70220641 -448.18926945 696.33921835 -441.89196742 695.97731918 C-438.56792627 695.78625815 -435.24392119 695.59461794 -431.91996384 695.40210152 C-416.28378324 694.49683402 -400.64834016 693.66520877 -385 693 C-385 688.05 -385 683.1 -385 678 C-433.18 678 -481.36 678 -531 678 C-531 668.76 -531 659.52 -531 650 C-515.64293461 649.1917334 -500.37650006 648.86838655 -485 649 C-485.03029297 648.14809082 -485.06058594 647.29618164 -485.09179688 646.41845703 C-485.20828602 643.05953739 -485.31926392 639.70050904 -485.42724609 636.34130859 C-485.47375266 634.924575 -485.52207636 633.50789912 -485.57275391 632.09130859 C-486.17906778 615.05265123 -486 598.06674169 -486 581 C-442.77 581 -399.54 581 -355 581 C-355 603.11 -355 625.22 -355 648 C-344.44 648.33 -333.88 648.66 -323 649 C-311.75 649.6328125 -311.75 649.6328125 -307 650 C-306.81809774 680.34409467 -307.34428302 710.66360165 -308 741 C-306.35813721 740.82259277 -306.35813721 740.82259277 -304.68310547 740.64160156 C-295.6508044 739.6740189 -286.61531583 738.76273091 -277.5703125 737.921875 C-195.33782784 730.24088063 -113.51727204 717.26284164 -35 691 C-34.32430969 690.77441406 -33.64861938 690.54882812 -32.95245361 690.31640625 C9.58786515 676.07362973 50.78856428 657.65691874 88.1875 632.75 C88.74373047 632.37976715 89.29996094 632.0095343 89.87304688 631.62808228 C105.4764581 621.20193995 120.23539601 609.7661353 134 597 C134.59167969 596.46246094 135.18335938 595.92492188 135.79296875 595.37109375 C141.92208501 589.56226385 146.91557863 582.71243807 152 576 C152.4218457 575.44957031 152.84369141 574.89914062 153.27832031 574.33203125 C165.65959423 558.0859117 175.28565731 540.28262728 182 521 C182.25362305 520.27361328 182.50724609 519.54722656 182.76855469 518.79882812 C198.23354339 473.34303136 188.40865117 426.3549 167.7734375 384.38671875 C161.5438618 372.0680338 154.28837902 360.28704167 146.03320312 349.22290039 C144.2267262 346.79780313 142.96582964 344.89748891 142 342 C79.63 342 17.26 342 -47 342 C-46 309 -46 309 -45 307 C-42.97721958 306.50681973 -42.97721958 306.50681973 -40.26161194 306.15879822 C-39.2366008 306.02286758 -38.21158966 305.88693695 -37.15551758 305.74688721 C-36.02146484 305.60603699 -34.88741211 305.46518677 -33.71899414 305.32006836 C-32.53212509 305.16532547 -31.34525604 305.01058258 -30.12242126 304.85115051 C-27.53588511 304.51526679 -24.94917121 304.18278226 -22.36149788 303.85597038 C-18.27247883 303.33952157 -14.18516861 302.81035529 -10.0980072 302.2794342 C-3.63436095 301.44137348 2.83037418 300.61206698 9.29561192 299.78638226 C20.8752682 298.30731948 32.45323327 296.81512852 44.03047282 295.31727511 C48.09627589 294.79161882 52.16260864 294.27032705 56.22942531 293.75257289 C59.34982612 293.35456155 62.46965587 292.95211324 65.58959961 292.55053711 C66.72162811 292.40766266 67.85365662 292.26478821 69.01998901 292.11758423 C70.04781998 291.98447342 71.07565094 291.85136261 72.1346283 291.71421814 C73.47941962 291.54251303 73.47941962 291.54251303 74.85137844 291.36733913 C77.04240318 291.09966877 77.04240318 291.09966877 79 290 C77.71564056 289.93958023 76.43128113 289.87916046 75.10800171 289.81690979 C62.95674081 289.24505906 50.80556564 288.67141632 38.65447044 288.09605503 C32.40868592 287.80037031 26.1628737 287.50529945 19.91699219 287.21166992 C13.88038821 286.92785561 7.84386487 286.64237859 1.80739212 286.35578728 C-0.48644638 286.24716897 -2.78031251 286.13913243 -5.07420731 286.03170967 C-16.72730575 285.48562437 -28.37009685 284.93202295 -40 284 C-36.86937614 281.91291743 -35.77583942 281.68683054 -32.15759277 281.41781616 C-31.15966705 281.33933945 -30.16174133 281.26086273 -29.13357544 281.18000793 C-27.49254349 281.06455879 -27.49254349 281.06455879 -25.81835938 280.94677734 C-24.66516205 280.85870316 -23.51196472 280.77062897 -22.32382202 280.67988586 C-18.49772375 280.38995104 -14.67081783 280.11275685 -10.84375 279.8359375 C-8.18390877 279.63766615 -5.52411991 279.43878145 -2.86437988 279.23916626 C2.72051644 278.82141684 8.30587998 278.41046434 13.89160156 278.00390625 C20.32618781 277.53551721 26.76006518 277.05825976 33.1936059 276.57573545 C39.39921544 276.11037066 45.60516586 275.64973428 51.81132507 275.19176102 C54.44267228 274.99734021 57.0739499 274.80197525 59.70515442 274.60563278 C63.39754796 274.33109653 67.09029875 274.06199957 70.78320312 273.79443359 C71.86103058 273.71341904 72.93885803 273.63240448 74.04934692 273.54893494 C80.71191611 273.07339407 87.32109366 272.90563454 94 273 C93.83701416 272.39317383 93.67402832 271.78634766 93.50610352 271.16113281 C92.57265707 267.1751859 92.94642022 263.07206309 93 259 C92.20273561 258.94473617 91.40547123 258.88947233 90.58404732 258.83253384 C82.96549219 258.27925456 75.40737248 257.51149546 67.83154297 256.54125977 C66.69329575 256.39802277 65.55504852 256.25478577 64.38230896 256.10720825 C60.66848323 255.63876717 56.95530032 255.16546288 53.2421875 254.69140625 C50.64479249 254.36126851 48.04739044 254.03118619 45.44998169 253.70115662 C40.03173929 253.01203203 34.61393138 252.31955695 29.19628906 251.62573242 C22.93660068 250.82417727 16.67587675 250.03109207 10.41463935 249.24173695 C4.3701117 248.47924747 -1.67327247 247.7080311 -7.71627426 246.93354607 C-10.28126004 246.60601127 -12.84658194 246.28109782 -15.41223526 245.95883369 C-18.98432369 245.50941146 -22.5549974 245.05005316 -26.12548828 244.58813477 C-27.18831528 244.45663528 -28.25114227 244.3251358 -29.34617615 244.18965149 C-30.31596909 244.06213501 -31.28576202 243.93461853 -32.28494263 243.80323792 C-33.12809084 243.69576516 -33.97123905 243.58829241 -34.83993721 243.4775629 C-37 243 -37 243 -40 241 C-13.89342542 239.60326942 12.22521139 238.50997116 38.34830093 237.47778702 C40.92066928 237.37566815 43.49297921 237.27218171 46.0652771 237.16830444 C50.20554339 237.00133225 54.34594613 236.8382249 58.48647308 236.67785072 C60.01957525 236.6179739 61.55263407 236.55697353 63.08563995 236.4946804 C74.06222053 236.05025907 85.01473577 235.93213107 96 236 C96 231.38 96 226.76 96 222 C94.06664795 221.88970459 92.1332959 221.77940918 90.14135742 221.66577148 C78.31027033 220.91236387 66.52669756 219.58030745 54.73828125 218.34765625 C52.21339632 218.08481311 49.68850919 217.821991 47.16362 217.55918884 C41.90288021 217.01076351 36.64241003 216.45981017 31.38208008 215.9074707 C25.3084936 215.2698448 19.23410321 214.64030775 13.1593135 214.0142594 C7.28688933 213.40861127 1.41538232 212.7943861 -4.45582008 212.17700005 C-6.94468314 211.91647595 -9.43381889 211.65854348 -11.9232235 211.40324593 C-15.38932993 211.04708968 -18.85426972 210.6811567 -22.3190918 210.31274414 C-23.34712921 210.20929687 -24.37516663 210.10584961 -25.43435669 209.99926758 C-26.37739151 209.89699356 -27.32042633 209.79471954 -28.29203796 209.68934631 C-29.10954371 209.60399659 -29.92704947 209.51864687 -30.76932812 209.43071079 C-33.13279912 208.97435839 -34.908848 208.17312251 -37 207 C-22.99980577 205.89105648 -8.97466418 205.4926054 5.05859375 205.02734375 C7.66033134 204.93930568 10.26206158 204.85105037 12.86378479 204.7625885 C18.97248017 204.55540373 25.08124452 204.35038258 31.19004923 204.14645058 C38.15526435 203.91380484 45.12038306 203.67833285 52.08549583 203.44264591 C66.39022687 202.95866165 80.6950763 202.47825384 95 202 C94.67 196.39 94.34 190.78 94 185 C90.46829102 185.01921509 90.46829102 185.01921509 86.86523438 185.03881836 C76.28843727 185.05760792 65.72642714 184.7205534 55.15625 184.37890625 C53.09135454 184.31387415 51.0264537 184.24901254 48.96154785 184.18431091 C44.66197139 184.04899026 40.36246013 183.91179676 36.06298828 183.77319336 C30.60036766 183.59721932 25.1376179 183.42570945 19.67481232 183.25558567 C15.41923551 183.12259796 11.16373302 182.9873418 6.9082489 182.85142326 C4.8959917 182.78739018 2.88371389 182.72400107 0.87141418 182.66131783 C-11.09977095 182.28685772 -23.047944 181.77867845 -35 181 C-35 180.67 -35 180.34 -35 180 C-19.90387048 178.31066222 -4.78646276 177.03665064 10.35546875 175.8359375 C12.83939748 175.63722094 15.32330935 175.43829341 17.8072052 175.23916626 C24.27916147 174.72088722 30.75133971 174.20543462 37.22357178 173.69061279 C43.85426515 173.16266891 50.48473955 172.63199361 57.11523438 172.1015625 C70.07661288 171.06506663 83.03822802 170.03156286 96 169 C96 163.72 96 158.44 96 153 C93.98285889 153.01087646 91.96571777 153.02175293 89.88745117 153.03295898 C68.81102915 153.12038383 47.76912285 152.74440016 26.70245361 152.13116455 C23.49184398 152.03892215 20.28110791 151.95161013 17.07036018 151.86432838 C-0.2938313 151.3912851 -17.64885685 150.83827943 -35 150 C-32.00123236 148.30553685 -29.57083274 147.6627674 -26.15122986 147.34188843 C-25.17717194 147.2465834 -24.20311401 147.15127838 -23.19953918 147.05308533 C-22.13716537 146.95741776 -21.07479156 146.86175018 -19.98022461 146.76318359 C-18.85614197 146.65560226 -17.73205933 146.54802094 -16.57391357 146.43717957 C-12.8507587 146.08299275 -9.12663251 145.74047935 -5.40234375 145.3984375 C-2.8111915 145.15522869 -0.22009207 144.91145651 2.37095642 144.66714478 C7.80856321 144.15566045 13.24673408 143.65056138 18.68530273 143.14941406 C24.94909961 142.57216306 31.2119813 141.98571797 37.47443205 141.39405382 C43.51810806 140.82321149 49.56232163 140.25830291 55.60680962 139.69612503 C58.16843619 139.45745391 60.72993777 139.21743707 63.29130745 138.97602463 C66.8852438 138.63828447 70.47973877 138.30726337 74.07446289 137.97802734 C75.12266708 137.87831131 76.17087128 137.77859528 77.25083923 137.67585754 C83.85246179 137.0802257 90.3726481 136.88531747 97 137 C96.83701416 136.4112207 96.67402832 135.82244141 96.50610352 135.21582031 C95.78185917 132.04493674 95.90743944 128.99654061 95.9375 125.75 C95.94652344 124.48671875 95.95554687 123.2234375 95.96484375 121.921875 C95.98224609 120.47554687 95.98224609 120.47554687 96 119 C95.3250499 119.00752792 94.65009979 119.01505585 93.95469666 119.02281189 C69.69525884 119.24982986 45.47585518 118.54383571 21.23071289 117.77319336 C15.61521846 117.59470753 9.99951737 117.42402814 4.38371372 117.25558567 C0.01097304 117.12370151 -4.36164751 116.98813841 -8.73423958 116.85142326 C-10.80695423 116.78698771 -12.87970175 116.72359997 -14.95248222 116.66131783 C-17.83100056 116.57420822 -20.70932294 116.48221403 -23.58764648 116.38891602 C-24.42655426 116.36445908 -25.26546204 116.34000214 -26.12979126 116.31480408 C-31.14360955 116.14604325 -36.03063924 115.69287146 -41 115 C-41 114.67 -41 114.34 -41 114 C-39.9752507 113.94180084 -38.9505014 113.88360168 -37.8946991 113.82363892 C-28.06049592 113.26511148 -18.22629647 112.70651849 -8.39210033 112.1478672 C-2.35877887 111.80513458 3.6745447 111.46243898 9.70787239 111.11981583 C11.66381112 111.00871881 13.61974755 110.89758144 15.57568169 110.78640366 C20.43852378 110.51001265 25.30139612 110.23417864 30.16433716 109.95953369 C38.34686903 109.49677439 46.52916551 109.03202236 54.7098856 108.53811836 C57.88481545 108.34646461 61.0599157 108.15771735 64.23502159 107.96900558 C65.67521641 107.88245324 67.11531879 107.79434384 68.55530739 107.70442581 C78.06396726 107.11070745 87.47762271 106.92378964 97 107 C97 102.05 97 97.1 97 92 C94.50083008 92.1071936 94.50083008 92.1071936 91.95117188 92.21655273 C65.70620837 93.2354805 39.46221899 93.11715537 13.20159912 93.06866455 C6.95862168 93.05826765 0.71563993 93.05383258 -5.52734375 93.04882812 C-17.6849068 93.03823781 -29.84245124 93.02126693 -42 93 C-42.02904864 89.08334892 -42.04681517 85.1667256 -42.0625 81.25 C-42.07087891 80.13882813 -42.07925781 79.02765625 -42.08789062 77.8828125 C-42.09272461 76.27792969 -42.09272461 76.27792969 -42.09765625 74.640625 C-42.10551147 73.16384277 -42.10551147 73.16384277 -42.11352539 71.65722656 C-42 69 -42 69 -41 65 C-26.81 65 -12.62 65 2 65 C1.67 63.68 1.34 62.36 1 61 C0.67 40.87 0.34 20.74 0 0 Z "
     fill="#ffff"
     transform="translate(1738,1999)"
     id="path1" />
  <path
     d="M0 0 C3.76692531 0.60242334 7.25256753 1.23013719 10.8125 2.625 C11.96685547 3.04652344 11.96685547 3.04652344 13.14453125 3.4765625 C15 5 15 5 15.7109375 7.796875 C15.83274428 9.19593361 15.92445874 10.59768213 16 12 C16.06243896 12.96147949 16.12487793 13.92295898 16.18920898 14.91357422 C16.33159122 17.21099031 16.46622852 19.50889444 16.59472656 21.80712891 C21.82233775 113.45442003 56.95645049 198.71898134 117 268 C113.62879853 262.10597889 110.198024 256.27449441 106.54150391 250.55395508 C63.58905604 183.1389192 38.10083629 102.37527101 33 7 C37.4287344 8.31804141 41.05090818 10.05907995 44.97265625 12.4921875 C45.52823715 12.8338797 46.08381805 13.1755719 46.65623474 13.52761841 C47.84430579 14.25875016 49.03079789 14.99245292 50.21582031 15.72851562 C53.36596557 17.68423775 56.52864128 19.6194622 59.69140625 21.5546875 C60.32233185 21.94114441 60.95325745 22.32760132 61.603302 22.72576904 C66.8422508 25.92533421 72.1491288 28.99133076 77.5 32 C86.13569857 36.87165673 94.61897968 41.97540433 103.08056641 47.14208984 C112.67775823 53.001345 122.3223633 58.77465053 132 64.5 C143.52496044 71.31976659 154.99688098 78.22052108 166.43041992 85.19238281 C173.49768819 89.49736995 180.58898193 93.75366948 187.76733398 97.87133789 C188.94625832 98.55382294 190.11651231 99.25159234 191.27587891 99.96679688 C193.02161147 101.04732082 193.02161147 101.04732082 195.03271484 101.98632812 C197.14706287 103.15279301 198.52502605 104.08221716 200 106 C200.55312665 109.77591414 199.71732147 113.28301976 199 117 C198.68014142 119.00199437 198.36046998 121.00402101 198.04443359 123.00662231 C197.6863367 125.23956301 197.31108685 127.46900154 196.93066406 129.69824219 C193.96640453 147.07871713 191.46560638 164.4200637 190 182 C189.89703613 183.20285645 189.79407227 184.40571289 189.68798828 185.64501953 C188.95561217 194.56658701 188.44455597 203.48242292 188.09942627 212.42663574 C188.02941505 214.23867576 187.95633893 216.05059866 187.88104248 217.86242676 C187.62360091 224.16574447 187.43498073 230.4664825 187.31893921 236.77401733 C187.27337612 238.8648166 187.21086797 240.95532272 187.13052368 243.04507446 C186.20268382 254.80292929 186.20268382 254.80292929 190.1496582 265.44921875 C192.63720234 267.94154531 195.14838939 269.94751412 198 272 C199.27063686 273.33677136 200.50346288 274.71095199 201.6875 276.125 C202.23365967 276.76195801 202.77981934 277.39891602 203.3425293 278.05517578 C204.16297729 279.01786377 204.16297729 279.01786377 205 280 C206.23372235 281.41576826 207.46939302 282.82984115 208.70703125 284.2421875 C209.32682861 284.94972168 209.94662598 285.65725586 210.58520508 286.38623047 C211.28552856 287.18504639 211.28552856 287.18504639 212 288 C211.83395264 287.36835938 211.66790527 286.73671875 211.49682617 286.0859375 C197.63891969 232.71160742 200.24740766 178.05081216 227 129 C227.31936523 128.4028418 227.63873047 127.80568359 227.96777344 127.19042969 C245.51298428 94.50468157 272.08947313 68.60834209 304 50 C304.58894043 49.65130859 305.17788086 49.30261719 305.78466797 48.94335938 C349.68724893 23.20948451 404.77383731 17.39291618 453.8125 29.4375 C456.88878014 30.24723487 459.94708942 31.10653759 463 32 C463.99257812 32.28359375 464.98515625 32.5671875 466.0078125 32.859375 C473.73765346 35.49398317 479.79755096 40.86823308 486 46 C486.81162598 46.65718018 486.81162598 46.65718018 487.63964844 47.32763672 C502.82610343 59.64110127 517.28735415 73.499198 528.796875 89.34814453 C530.02084766 91.02862323 531.27365188 92.68442414 532.53125 94.33984375 C539.2973983 103.37438164 544.79525383 112.99787521 550 123 C550.32597168 123.6192334 550.65194336 124.2384668 550.98779297 124.87646484 C559.86096888 141.95484132 565.70991131 161.07078403 569 180 C569.22429688 181.28777344 569.44859375 182.57554687 569.6796875 183.90234375 C575.05946626 219.13093564 569.30492625 255.94057746 554 288 C553.48397217 289.08571289 553.48397217 289.08571289 552.95751953 290.19335938 C540.54626426 315.86064533 521.49165659 338.57114839 499 356 C498.45778809 356.42394043 497.91557617 356.84788086 497.35693359 357.28466797 C460.5884695 385.84989255 414.15251715 403.2465671 368 408 C367.03707031 408.11085938 366.07414062 408.22171875 365.08203125 408.3359375 C285.23954103 416.1408837 207.01936765 380.66524461 146.25390625 330.9765625 C140.50761291 326.18619614 134.92414538 321.20559354 129.390625 316.171875 C127.78542828 314.71355902 126.1706457 313.2657309 124.546875 311.828125 C116.24135824 304.46285542 108.19269642 296.78772467 100.98828125 288.328125 C99.37954537 286.44441855 97.75061455 284.58601786 96.10546875 282.734375 C73.09277302 256.72623227 53.94074327 227.23531996 38.93115234 195.93164062 C37.98668815 193.97238507 37.02000283 192.02523482 36.05078125 190.078125 C20.07530396 157.5762919 10.32729612 122.26561783 4.25 86.6875 C4.05124268 85.53354736 3.85248535 84.37959473 3.64770508 83.19067383 C0.43769084 63.51368559 -0.27486911 44.10171132 -0.125 24.1875 C-0.11493592 21.82617573 -0.10581622 19.46484724 -0.09765625 17.10351562 C-0.07594706 11.40224933 -0.04274878 5.70114543 0 0 Z M118 269 C118.33 269.99 118.66 270.98 119 272 C119 271.01 119 270.02 119 269 C118.67 269 118.34 269 118 269 Z "
     fill="#ffff"
     transform="translate(2114,2887)"
     id="path2" />
  <path
     d="M0 0 C5.74115625 0.01692873 11.48188989 0.00702378 17.22303104 -0.01032925 C108.89976138 -0.24430827 201.52055302 8.64260908 449.90283203 121.07080078 C451.68046646 122.6927898 453.47061899 124.30111784 455.27001953 125.89892578 C460.74854064 130.78699237 465.80333134 135.70760523 470.44580078 141.39111328 C470.88005371 141.90770508 471.31430664 142.42429687 471.76171875 142.95654297 C493.2590812 168.54077453 506.29802152 197.45431328 504.44580078 231.39111328 C502.18258516 257.25409183 490.27952838 281.14047309 474.44580078 301.39111328 C473.70716797 302.33986328 472.96853516 303.28861328 472.20751953 304.26611328 C464.16927426 314.31748925 455.32769736 323.58997061 446.25830078 332.70361328 C445.60531006 333.36127686 444.95231934 334.01894043 444.27954102 334.6965332 C430.78687514 348.14503324 415.91944969 358.91988734 399.44580078 368.39111328 C398.72215332 368.8086084 397.99850586 369.22610352 397.25292969 369.65625 C344.7547194 399.53838776 281.88656099 414.29008636 223.44580078 427.64111328 C222.19500732 427.92889648 220.94421387 428.21667969 219.65551758 428.51318359 C218.51381104 428.76680664 217.37210449 429.02042969 216.19580078 429.28173828 C215.22126953 429.49862305 214.24673828 429.71550781 213.24267578 429.93896484 C210.26585587 430.42020354 207.4561137 430.47015626 204.44580078 430.39111328 C207.69495077 428.22501329 210.52892116 427.26627941 214.24267578 426.06298828 C215.67022002 425.59603095 217.0977075 425.12890008 218.52514648 424.66162109 C219.28381012 424.41496704 220.04247375 424.16831299 220.8241272 423.91418457 C260.98004116 410.82495324 300.85893125 396.4515904 339.12304688 378.48046875 C340.78193781 377.70246041 342.44410168 376.93141521 344.10839844 376.16503906 C371.57793221 363.51490816 399.4136679 349.11483991 420.68017578 327.15673828 C422.44580078 325.39111328 422.44580078 325.39111328 425.50830078 322.89111328 C428.5257173 320.32309922 430.98506111 317.61390418 433.54345703 314.60205078 C435.53649826 312.28570307 437.61262468 310.06403576 439.69580078 307.82861328 C461.60799633 283.45688557 477.9034279 253.28852319 476.62939453 219.86425781 C474.74988893 194.54591778 458.6290088 172.48748911 440.63330078 155.70361328 C424.29106393 141.67346139 406.20924549 129.68485699 386.73583984 120.48535156 C384.19544135 119.27148524 381.67643483 118.01846472 379.15673828 116.76220703 C351.45575953 103.05947172 322.65762343 91.44891578 293.44580078 81.39111328 C292.75715942 81.15390564 292.06851807 80.916698 291.35900879 80.67230225 C220.71058147 56.42444424 147.04976605 41.67740561 72.44580078 37.39111328 C71.34276108 37.32756149 71.34276108 37.32756149 70.21743774 37.26272583 C54.43938568 36.38122543 38.68361189 36.18938268 22.88330078 36.20361328 C21.63435028 36.20421753 20.38539978 36.20482178 19.09860229 36.20544434 C-1.85267094 36.232817 -22.66876708 36.73460707 -43.55419922 38.39111328 C-44.34070862 38.45192078 -45.12721802 38.51272827 -45.93756104 38.57537842 C-105.96889124 43.23479863 -165.22206192 53.56660533 -223.55419922 68.39111328 C-224.33502869 68.58900452 -225.11585815 68.78689575 -225.92034912 68.99078369 C-322.11699124 93.0861396 -322.11699124 93.0861396 -405.55419922 144.39111328 C-406.859375 145.53386719 -406.859375 145.53386719 -408.19091797 146.69970703 C-410.6741265 148.90081713 -413.11934348 151.13677271 -415.55419922 153.39111328 C-416.45912109 154.19742187 -416.45912109 154.19742187 -417.38232422 155.02001953 C-434.71881463 171.1818412 -443.92788411 194.08289589 -444.79248047 217.50048828 C-445.50842305 253.90068592 -431.80126209 285.2652011 -407.07763672 311.77392578 C-406.24490234 312.63759766 -405.41216797 313.50126953 -404.55419922 314.39111328 C-404.01956055 314.9515332 -403.48492188 315.51195312 -402.93408203 316.08935547 C-394.86291223 324.51510714 -386.55359523 332.16068424 -377.20556641 339.14111328 C-375.6347609 340.33013224 -374.09724842 341.5627604 -372.56201172 342.79736328 C-355.62174767 356.34957452 -336.51986144 366.97683673 -317.55419922 377.39111328 C-316.82491211 377.7963623 -316.095625 378.20161133 -315.34423828 378.61914062 C-271.05086726 403.19227702 -222.40685813 420.22579856 -174.55419922 436.39111328 C-174.88419922 437.05111328 -175.21419922 437.71111328 -175.55419922 438.39111328 C-238.9097803 422.36981021 -301.02432539 403.83844307 -359.55419922 374.39111328 C-360.45944336 373.94171387 -361.3646875 373.49231445 -362.29736328 373.02929688 C-380.45884662 363.99087322 -397.86920449 353.28719852 -413.55419922 340.39111328 C-414.58029297 339.56740234 -415.60638672 338.74369141 -416.66357422 337.89501953 C-448.01914847 312.37929491 -472.62483954 277.43737546 -477.36889648 236.41845703 C-480.38580104 203.41137474 -468.35427993 174.52657381 -447.55419922 149.39111328 C-390.22058974 82.9508231 -295.74264931 51.08425318 -201.55419922 26.39111328 C-200.78505188 26.19582031 -200.01590454 26.00052734 -199.22344971 25.79931641 C-166.67956827 17.57043798 -133.80974075 11.07462108 -100.61669922 6.07861328 C-99.85650482 5.96127838 -99.09631042 5.84394348 -98.31307983 5.72305298 C-92.40704 4.82040281 -86.48972359 4.07192253 -80.55419922 3.39111328 C-79.41658142 3.25874268 -78.27896362 3.12637207 -77.10687256 2.98999023 C-51.42941822 0.11999241 -25.81534734 -0.07668856 0 0 Z "
     fill="#ffff"
     transform="translate(3665.55419921875,1698.60888671875)"
     id="path3" />
  <path
     d="M0 0 C1.10307243 -0.00282738 2.20614487 -0.00565475 3.34264374 -0.00856781 C9.21752654 -0.02350663 15.09238527 -0.03276112 20.96728516 -0.03710938 C25.70597294 -0.04143219 30.44447226 -0.05508612 35.18310547 -0.078125 C127.84159876 -0.51925205 220.97284989 7.9852335 326.921875 40.203125 C327.98277344 40.56083984 329.04367187 40.91855469 330.13671875 41.28710938 C369.24808872 54.61944296 408.42933208 71.72561067 441.921875 96.203125 C442.46875977 96.59983398 443.01564453 96.99654297 443.57910156 97.40527344 C453.64494909 104.73203128 463.25956829 112.56354672 472.453125 120.95703125 C474.10524965 122.46015099 475.77218387 123.94714526 477.453125 125.41796875 C503.26122162 148.07970791 524.7082388 180.25651877 527.06225586 215.29248047 C528.76524724 252.60540387 511.57833431 284.51913229 487.921875 312.203125 C487.28507812 312.95207031 486.64828125 313.70101563 485.9921875 314.47265625 C480.85159398 320.34333406 475.36362472 325.86287914 469.859375 331.390625 C469.10342041 332.15125244 468.34746582 332.91187988 467.56860352 333.69555664 C453.78126479 347.44390148 438.76683642 358.51841966 421.921875 368.203125 C421.19822754 368.62062012 420.47458008 369.03811523 419.72900391 369.46826172 C367.23079362 399.35039948 304.36263521 414.10209807 245.921875 427.453125 C244.67108154 427.7409082 243.42028809 428.02869141 242.1315918 428.32519531 C240.98988525 428.57881836 239.84817871 428.83244141 238.671875 429.09375 C237.69734375 429.31063477 236.7228125 429.52751953 235.71875 429.75097656 C232.74193008 430.23221526 229.93218792 430.28216798 226.921875 430.203125 C230.17102499 428.03702501 233.00499538 427.07829112 236.71875 425.875 C238.14645571 425.40795733 239.57410602 424.9407453 241.00170898 424.47338867 C241.76039276 424.22672455 242.51907654 423.98006042 243.30075073 423.72592163 C348.41083485 390.80070947 348.41083485 390.80070947 439.10546875 330.8671875 C441.76433575 328.35214271 444.48417097 325.92983125 447.234375 323.515625 C451.50817775 319.66852522 455.22884122 315.59959378 458.921875 311.203125 C459.84701939 310.14933627 460.77428508 309.09740785 461.703125 308.046875 C483.60177623 283.15056978 500.73330946 253.66451884 499.12158203 219.59570312 C496.94408809 193.50836738 480.03509333 170.04670794 460.6796875 153.4296875 C444.68415447 140.51544695 427.82786251 129.0917941 409.21191406 120.29736328 C406.67151557 119.08349696 404.15250905 117.83047643 401.6328125 116.57421875 C373.93183375 102.87148344 345.13369765 91.2609275 315.921875 81.203125 C315.23323364 80.96591736 314.54459229 80.72870972 313.83508301 80.48431396 C243.23266887 56.25224854 169.49545837 41.35958793 94.921875 37.203125 C93.80659927 37.13957321 93.80659927 37.13957321 92.66879272 37.07473755 C76.89850162 36.19757898 61.15184068 36.00140147 45.359375 36.015625 C44.1104245 36.01622925 42.861474 36.0168335 41.57467651 36.01745605 C20.62340328 36.04482872 -0.19269286 36.54661879 -21.078125 38.203125 C-21.8646344 38.2639325 -22.6511438 38.32473999 -23.46148682 38.38739014 C-83.49281702 43.04681035 -142.7459877 53.37861705 -201.078125 68.203125 C-201.85895447 68.40101624 -202.63978394 68.59890747 -203.4442749 68.80279541 C-270.03101883 85.72374032 -341.56682967 105.45241659 -393.078125 153.203125 C-393.68269531 153.74195313 -394.28726562 154.28078125 -394.91015625 154.8359375 C-412.24569941 170.99412527 -421.45197166 193.89928913 -422.31640625 217.3125 C-423.05379063 254.80284884 -408.45885172 286.26476351 -382.9140625 313.2734375 C-381.96900132 314.25024321 -381.02368105 315.22679831 -380.078125 316.203125 C-379.32644043 316.99348145 -379.32644043 316.99348145 -378.55957031 317.79980469 C-371.14050609 325.5886665 -363.35456044 332.45712944 -354.76171875 338.92089844 C-353.17951745 340.12590442 -351.62758232 341.37035857 -350.078125 342.6171875 C-333.87810472 355.56876622 -315.69470532 365.85188843 -297.56835938 375.83105469 C-295.46661552 376.98907434 -293.37276062 378.15960595 -291.28125 379.3359375 C-247.48964182 403.4515927 -199.30901885 420.24785144 -152.078125 436.203125 C-152.408125 436.863125 -152.738125 437.523125 -153.078125 438.203125 C-216.41845283 422.18567916 -278.57622581 403.68402751 -337.078125 374.203125 C-337.92391113 373.7807959 -338.76969727 373.3584668 -339.64111328 372.92333984 C-357.86733746 363.78101282 -375.14192138 352.92581943 -391.078125 340.203125 C-391.91150391 339.54328613 -391.91150391 339.54328613 -392.76171875 338.87011719 C-412.67467424 322.98034275 -428.39743727 304.8456889 -440.078125 282.203125 C-440.40296875 281.5740625 -440.7278125 280.945 -441.0625 280.296875 C-454.92176231 253.03275243 -459.24017543 223.14625521 -450.20703125 193.546875 C-443.3346752 173.19138443 -431.92242346 156.50519816 -417.078125 141.203125 C-416.54171387 140.64093262 -416.00530273 140.07874023 -415.45263672 139.49951172 C-407.2297396 130.89669443 -398.6452489 123.27317794 -389.078125 116.203125 C-388.53784668 115.79674805 -387.99756836 115.39037109 -387.44091797 114.97167969 C-314.02948874 59.85213482 -216.19310878 31.84563129 -38.078125 1.203125 C-37.06264587 1.11579605 -36.04716675 1.0284671 -35.00091553 0.93849182 C-23.33786227 0.05017153 -11.69217043 0.02059806 0 0 Z "
     fill="#ffff"
     transform="translate(1780.078125,1698.796875)"
     id="path4" />
  <path
     d="M0 0 C1.26441925 0.00040031 1.26441925 0.00040031 2.55438232 0.00080872 C27.30801304 0.010643 52.0185439 0.07445128 76.71154785 2.00390625 C79.22887427 2.20049273 81.74673198 2.38925523 84.26464844 2.578125 C175.7235141 9.55013425 273.51905167 27.41168858 371.0625 91.1875 C371.98675781 91.89777344 372.91101562 92.60804688 373.86328125 93.33984375 C378.9999133 97.3740571 383.88418181 101.64339377 388.703125 106.05078125 C390.74417962 107.89921979 392.82624282 109.67084885 394.9375 111.4375 C416.57452299 130.46765275 436.00958998 158.57897643 438.28369141 188.05444336 C438.80333705 201.55306826 438.36417443 214.32203233 434.0625 227.1875 C433.74901611 228.13278564 433.74901611 228.13278564 433.42919922 229.09716797 C426.29161116 249.88973723 413.49041339 267.73320759 398.50390625 283.59375 C396.48298422 285.74077757 394.57468419 287.9247337 392.6875 290.1875 C378.52273335 306.43334611 360.94636437 319.0747414 342.0625 329.1875 C341.03987061 329.73615723 341.03987061 329.73615723 339.99658203 330.29589844 C293.28845451 355.06271736 240.68773993 367.92534996 189.5 379.8125 C188.34567474 380.08335419 188.34567474 380.08335419 187.16802979 380.35968018 C185.00820398 380.86452993 182.84640985 381.35970327 180.68359375 381.8515625 C179.4505249 382.13467285 178.21745605 382.4177832 176.94702148 382.70947266 C174.0625 383.1875 174.0625 383.1875 172.0625 382.1875 C180.57685956 378.55439874 189.33725111 375.69463866 198.10842896 372.76123047 C246.48280123 356.53193287 297.27945065 338.57543948 340.0625 310.1875 C340.68753418 309.77580566 341.31256836 309.36411133 341.95654297 308.93994141 C351.12473028 302.83667936 359.17614122 295.85514242 367.0625 288.1875 C367.55379395 287.71666992 368.04508789 287.24583984 368.55126953 286.76074219 C375.27390076 280.31153563 381.38694319 273.57363404 387.0625 266.1875 C387.86429688 265.15238281 388.66609375 264.11726563 389.4921875 263.05078125 C405.97389029 241.21478017 416.17291468 216.69969912 412.79443359 188.98876953 C410.42108344 175.34284535 403.07934218 162.52809135 394.0625 152.1875 C393.37414063 151.37925781 392.68578125 150.57101563 391.9765625 149.73828125 C361.67245379 115.02146899 316.04813395 97.41372209 274.0625 81.1875 C273.1336499 80.82685455 273.1336499 80.82685455 272.18603516 80.45892334 C192.76164898 49.64981278 109.27709216 35.0761861 -2.9375 32.1875 C-3.68719055 32.20941406 -4.4368811 32.23132812 -5.20928955 32.25390625 C-93.91778743 34.91426419 -181.27191165 50.23703102 -313.9375 95.1875 C-314.92717773 95.63029297 -315.91685547 96.07308594 -316.93652344 96.52929688 C-336.16225238 105.2211148 -355.16889745 114.96581732 -370.9375 129.1875 C-371.9171875 130.02539062 -372.896875 130.86328125 -373.90625 131.7265625 C-389.68521019 145.40432319 -400.87361454 162.2421451 -403.9375 183.1875 C-404.06640625 183.97253906 -404.1953125 184.75757812 -404.328125 185.56640625 C-408.29722828 213.92460466 -398.93727183 241.89913327 -382.0625 264.5 C-334.00321817 327.08106451 -252.77603276 356.96209414 -180.96289062 382.46746826 C-177.59892258 383.66336782 -174.23699731 384.86497996 -170.875 386.06640625 C-169.72902344 386.47576416 -168.58304688 386.88512207 -167.40234375 387.30688477 C-166.58894531 387.59748779 -165.77554687 387.88809082 -164.9375 388.1875 C-169.07081809 389.8893754 -172.82593238 388.43236072 -176.92578125 387.30078125 C-177.72388718 387.0880658 -178.5219931 386.87535034 -179.34428406 386.65618896 C-181.98267577 385.94859485 -184.61644793 385.22538531 -187.25 384.5 C-188.15886963 384.25240936 -189.06773926 384.00481873 -190.00415039 383.74972534 C-372.70171247 333.95558221 -372.70171247 333.95558221 -416.7956543 258.86279297 C-430.73786328 234.39691256 -438.51252538 206.9078415 -431.97265625 178.83203125 C-424.66579512 153.10636546 -409.52707417 131.26451523 -388.9375 114.1875 C-388.11378906 113.46433594 -387.29007813 112.74117187 -386.44140625 111.99609375 C-366.48098596 94.7487403 -343.37086568 82.02144905 -319.9375 70.1875 C-319.07914551 69.7529248 -318.22079102 69.31834961 -317.33642578 68.87060547 C-239.59248041 29.83847751 -148.99168434 9.1473793 0 0 Z "
     fill="#ffff"
     transform="translate(1277.9375,2232.8125)"
     id="path5" />
  <path
     d="M0 0 C4.52338785 0.70973429 8.62239113 2.28654725 12.859375 3.95703125 C14.44937481 4.57529393 16.03938162 5.19353859 17.62939453 5.81176758 C18.8807016 6.30092148 18.8807016 6.30092148 20.1572876 6.79995728 C39.00155267 14.15928625 57.9396138 21.22174311 77 28 C78.16450684 28.41523926 79.32901367 28.83047852 80.52880859 29.25830078 C102.64288765 37.10950915 125.02234376 44.13126931 147.40170288 51.18060303 C150.02925114 52.00922462 152.65598057 52.84039429 155.2824707 53.67236328 C156.13348358 53.9417572 156.98449646 54.21115112 157.86129761 54.4887085 C159.45260646 54.99253055 161.04378416 55.49676712 162.63479614 56.00152588 C168.78151929 57.94613836 174.94932328 59.81278415 181.14453125 61.59765625 C183.75411079 62.35060044 186.36291224 63.10589663 188.97021484 63.86669922 C203.97483458 68.24351934 219.01766705 72.37521621 234.16845703 76.21020508 C240.13352847 77.72351138 246.07224114 79.28660601 251.984375 80.99609375 C259.24282569 83.09212237 266.54496073 84.98483262 273.875 86.8125 C274.55642059 86.98296844 275.23784119 87.15343689 275.93991089 87.32907104 C289.57922643 90.73236082 303.28912788 93.75608819 317.03268433 96.70414734 C321.69252604 97.70763005 326.34234842 98.75048063 330.98828125 99.81640625 C331.64301926 99.966577 332.29775726 100.11674774 332.97233582 100.27146912 C334.28694698 100.57307782 335.60155778 100.87468812 336.91616821 101.17630005 C350.17437823 104.21329293 363.47020862 106.89698664 376.83837891 109.3984375 C383.21726604 110.61215008 389.57920941 111.91297877 395.94091797 113.21337891 C413.43403658 116.75404618 431.07055945 119.53280104 448.6875 122.375 C449.91966248 122.5738681 451.15182495 122.77273621 452.42132568 122.97763062 C471.54932706 126.05497256 490.68795784 128.84465086 509.9138031 131.22932434 C514.24103931 131.76849712 518.55896378 132.35260282 522.875 132.9765625 C561.75391906 138.56351053 600.98704538 141.81387368 640.15556717 144.59224319 C642.30774351 144.74521942 644.45977253 144.90013943 646.61178589 145.0553894 C656.73681129 145.78149075 666.86563599 146.41926152 677 147 C677.80738617 147.04693497 678.61477234 147.09386993 679.44662476 147.14222717 C713.41862952 149.10226992 747.36985416 149.3149477 781.38584244 149.25713897 C786.32821961 149.24960733 791.27051642 149.25231318 796.21289062 149.26074219 C831.85065531 149.31985965 867.40052327 148.83391469 903 147 C904.56166292 146.92118625 906.12332864 146.84242773 907.68499756 146.76373291 C916.73162223 146.30283447 925.77274861 145.76807324 934.8125 145.1875 C936.15016456 145.10263559 937.48783145 145.01780778 938.82550049 144.93301392 C1010.30042353 140.37852618 1081.82820679 132.25760169 1152.30078125 119.38671875 C1158.43243317 118.26874253 1164.57408546 117.2466186 1170.72851562 116.26293945 C1216.25672539 108.9529946 1261.2771263 98.56644195 1306.01690674 87.49023438 C1308.92575377 86.77114726 1311.8360307 86.05789759 1314.74609375 85.34375 C1335.535479 80.21945289 1356.1785493 74.55742547 1376.78515625 68.74609375 C1380.93455644 67.57648606 1385.08811336 66.42387514 1389.24609375 65.28515625 C1401.31551016 61.96604322 1413.26104684 58.41907218 1425.11914062 54.40063477 C1426.10849609 54.07248779 1427.09785156 53.74434082 1428.1171875 53.40625 C1428.98972168 53.11041016 1429.86225586 52.81457031 1430.76123047 52.50976562 C1433 52 1433 52 1436 53 C1434.39151141 53.64339543 1432.78302212 54.28678912 1431.17453003 54.93017578 C1429.73500469 55.50599418 1428.29549085 56.08184134 1426.85598755 56.65771484 C1422.86665968 58.2535951 1418.87712472 59.84895427 1414.88720703 61.44335938 C1404.84717351 65.45529145 1404.84717351 65.45529145 1394.8203125 69.5 C1386.1492458 73.01142371 1377.44978375 76.33411747 1368.609375 79.39453125 C1363.24201793 81.25381949 1357.90399705 83.19295107 1352.5625 85.125 C1348.04292563 86.75351346 1343.52178915 88.37764695 1339 90 C1337.98833771 90.36309265 1337.98833771 90.36309265 1336.95623779 90.73352051 C1332.54170122 92.3170575 1328.1249021 93.89408707 1323.70578003 95.46478271 C1322.26502815 95.97766399 1320.82483619 96.49212166 1319.38528442 97.00836182 C1310.24958244 100.28272107 1301.07053357 103.21782029 1291.74560547 105.90576172 C1287.55347483 107.13044752 1283.43286528 108.49445184 1279.3125 109.9375 C1270.8198081 112.83519481 1262.21356016 115.19304722 1253.546875 117.5078125 C1248.32564914 118.90292115 1243.1298522 120.37650891 1237.9375 121.875 C1208.19248631 130.41902227 1178.38022155 138.17339265 1148.123703 144.67088318 C1143.60883835 145.64354809 1139.10361132 146.65285202 1134.6015625 147.68359375 C1098.13096866 155.977829 1061.15964907 162.12406246 1024.18078613 167.67181396 C1022.0233786 167.99648176 1019.86661009 168.32512082 1017.70996094 168.65478516 C976.75398442 174.8971874 935.5803112 178.94664401 894.2555542 181.77282715 C891.11237858 181.99215821 887.97050187 182.22492991 884.82861328 182.46191406 C849.26839472 185.10681294 813.72501331 185.29051038 778.08311844 185.31007385 C774.38002237 185.31245655 770.67693886 185.3177702 766.97384644 185.32336426 C725.73871586 185.36892246 684.54806623 184.52731827 643.4375 181.125 C641.25774089 180.95023614 639.07797173 180.77559768 636.89819336 180.60107422 C594.22638542 177.14181991 551.88897618 171.77665155 509.5625 165.375 C508.63243134 165.23492523 507.70236267 165.09485046 506.74411011 164.95053101 C494.00852533 163.02495106 481.33106203 160.85634178 468.66879272 158.49713135 C466.08356608 158.01556633 463.49758976 157.53824865 460.91137695 157.06201172 C427.81140214 150.95155189 395.0727718 143.79196019 362.375 135.8125 C361.33987274 135.56028687 360.30474548 135.30807373 359.23825073 135.04821777 C347.11892082 132.08859252 335.05445724 128.99546551 323.05456543 125.58279419 C321.05454729 125.01547278 319.05265679 124.45541886 317.04980469 123.89819336 C265.63891833 109.58665271 214.78519697 93.24010121 165 74 C163.84822266 73.55769043 162.69644531 73.11538086 161.50976562 72.65966797 C118.31542746 56.04693375 75.54251297 37.90248634 34.01123047 17.47314453 C28.7970102 14.92226038 23.55345238 12.43287175 18.3125 9.9375 C12.17776353 7.01619692 6.06763464 4.05853993 0 1 C0 0.67 0 0.34 0 0 Z "
     fill="#000000"
     transform="translate(1992,2276)"
     id="path6" />
  <path
     d="M0 0 C1.71218389 -0.00323006 3.42436753 -0.00659529 5.1365509 -0.01008606 C8.71937698 -0.01603909 12.3021791 -0.0179305 15.88500977 -0.01733398 C19.47881196 -0.01725361 23.07248427 -0.02405768 26.66625977 -0.0378418 C58.2992367 -0.15708831 89.68919938 0.85452642 121.14453125 4.41796875 C122.09881012 4.52368195 123.05308899 4.62939514 124.0362854 4.73831177 C199.33362443 13.13191262 280.8992523 31.79871737 341.14453125 80.16796875 C342.44003906 81.15603516 342.44003906 81.15603516 343.76171875 82.1640625 C368.32495386 101.31442665 389.15009492 125.91415234 393.89453125 157.48046875 C395.91403584 187.26816139 383.87014912 211.75911515 364.76074219 233.76123047 C355.05973594 244.76880436 344.82157978 255.24800112 333.14453125 264.16796875 C332.367146 264.76520752 331.58976074 265.36244629 330.78881836 265.9777832 C324.07643576 271.01433724 317.16844291 275.15359361 309.70703125 278.98046875 C308.53817383 279.58084961 307.36931641 280.18123047 306.16503906 280.79980469 C272.80361183 297.69968097 236.41295541 307.52445648 200.30737305 316.62188721 C198.23458559 317.14523153 196.16301715 317.6731284 194.09179688 318.20263672 C190.57065905 319.0993155 187.04636929 319.98151544 183.51953125 320.85546875 C182.50713379 321.11166992 181.49473633 321.36787109 180.45166016 321.63183594 C179.53304199 321.85387695 178.61442383 322.07591797 177.66796875 322.3046875 C176.88341309 322.49764404 176.09885742 322.69060059 175.29052734 322.8894043 C172.94069005 323.19442868 171.40537213 322.79490365 169.14453125 322.16796875 C169.93663246 321.89180473 169.93663246 321.89180473 170.74473572 321.61006165 C257.10649535 293.46577349 257.10649535 293.46577349 332.14453125 244.16796875 C333.29501953 243.10642578 333.29501953 243.10642578 334.46875 242.0234375 C339.85907362 236.82373436 344.51347334 231.04189177 349.14453125 225.16796875 C350.26021484 223.79511719 350.26021484 223.79511719 351.3984375 222.39453125 C366.38228471 203.37156001 374.61641407 182.17897276 371.75390625 157.84765625 C366.75013549 134.30427331 347.6158808 116.57347878 328.47558594 103.67480469 C318.09357513 96.963685 307.4867328 91.09838001 296.26953125 85.91796875 C295.59055786 85.60225922 294.91158447 85.28654968 294.21203613 84.96127319 C233.23495354 56.68369265 167.89042717 38.74422857 101.14453125 31.16796875 C100.41371338 31.08440125 99.68289551 31.00083374 98.92993164 30.91473389 C53.75519034 25.8318854 7.31597741 26.29793707 -37.85546875 31.16796875 C-38.63744629 31.25046875 -39.41942383 31.33296875 -40.22509766 31.41796875 C-113.93679447 39.22927552 -193.93622578 55.25916976 -259.85546875 90.16796875 C-261.02207031 90.78027344 -262.18867188 91.39257812 -263.390625 92.0234375 C-285.63134265 104.18437105 -306.99345123 121.36957173 -314.5703125 146.54296875 C-315.09442933 148.74655482 -315.50867645 150.92994865 -315.85546875 153.16796875 C-315.96632813 153.87308594 -316.0771875 154.57820313 -316.19140625 155.3046875 C-319.6006172 180.9659105 -311.54980632 203.74367991 -296.48046875 224.35546875 C-285.32355695 238.74851951 -271.66258798 250.68680857 -256.85546875 261.16796875 C-256.25089844 261.60125488 -255.64632812 262.03454102 -255.0234375 262.48095703 C-221.77065979 286.13946047 -183.4094649 302.03064601 -145.35546875 316.16796875 C-144.63515472 316.43560028 -143.9148407 316.70323181 -143.17269897 316.97897339 C-133.46332353 320.57432187 -123.69701951 323.95149663 -113.85546875 327.16796875 C-113.85546875 327.49796875 -113.85546875 327.82796875 -113.85546875 328.16796875 C-120.09348266 327.60347937 -125.85262888 326.56000959 -131.875 324.8671875 C-133.14064285 324.51906509 -133.14064285 324.51906509 -134.43185425 324.16390991 C-137.17990445 323.40368282 -139.92422594 322.63108961 -142.66796875 321.85546875 C-144.09032333 321.45556229 -144.09032333 321.45556229 -145.54141235 321.0475769 C-202.84916999 304.89050086 -261.9764457 284.76146175 -306.85546875 244.16796875 C-307.53867188 243.55695312 -308.221875 242.9459375 -308.92578125 242.31640625 C-328.6371561 223.70520116 -341.20281571 195.87975386 -342.16796875 168.85546875 C-341.51929397 141.00299543 -326.77196206 117.99729373 -307.234375 99.26171875 C-247.54249062 43.70861022 -155.20092536 20.94148143 0 0 Z "
     fill="#ffff"
     transform="translate(3428.85546875,2529.83203125)"
     id="path7" />
  <path
     d="M0 0 C67.77947029 0 67.77947029 0 89.97930908 2.75 C92.06213987 3.00768795 94.14595629 3.25607055 96.22998047 3.50390625 C136.41324706 8.35221323 175.43802025 17.82253271 214 30 C214 59.37 214 88.74 214 119 C208.06244698 118.46022245 202.20172275 117.90987081 196.29663086 117.19995117 C150.60135143 111.97804989 104.4133494 120.28254332 63 140 C62.31599121 140.32081543 61.63198242 140.64163086 60.92724609 140.97216797 C40.22608871 150.72583604 20.20459804 163.5843077 3.71484375 179.5234375 C2 181 2 181 0 181 C0 121.27 0 61.54 0 0 Z "
     fill="#ffff"
     transform="translate(2354,2731)"
     id="path8" />
  <path
     d="M0 0 C1.41345703 0.67869141 1.41345703 0.67869141 2.85546875 1.37109375 C8.22556015 3.93835146 13.6123155 6.46991832 19 9 C19.62787415 9.29555786 20.25574829 9.59111572 20.90264893 9.89562988 C75.73945175 35.70177474 132.39339162 58.26594041 191 74 C192.32725138 74.36094981 193.65439148 74.72230894 194.98144531 75.08398438 C259.12029007 92.53521163 324.67951794 104.82989872 391 110 C391.9450238 110.07412109 392.89004761 110.14824219 393.8637085 110.22460938 C448.19427658 114.42173404 502.83725723 114.58923632 557.16052246 110.22784424 C559.98589258 110.001132 562.81173354 109.78121128 565.63769531 109.56201172 C591.12440106 107.55853764 616.36649027 104.42711492 641.60736084 100.3828125 C643.94034121 100.00954516 646.27403048 99.64103463 648.60791016 99.2734375 C668.94509862 96.05441935 689.0080787 91.95407487 709.07432556 87.34915161 C714.95321074 86.00209883 720.84527028 84.72822991 726.75 83.5 C727.51828125 83.33999512 728.2865625 83.17999023 729.078125 83.01513672 C730.71835889 82.67486704 732.35910136 82.33704945 734 82 C734 82.99 734 83.98 734 85 C716.97758749 92.14881207 699.87376762 98.92150385 682.4375 105 C681.67329742 105.26654388 680.90909485 105.53308777 680.12173462 105.80770874 C675.08809425 107.55899682 670.04680646 109.28705196 665 111 C664.32849915 111.22828491 663.65699829 111.45656982 662.96514893 111.69177246 C612.57152928 128.7854605 559.77788757 138.38610646 506.9375 143.6875 C505.7630835 143.80697998 504.58866699 143.92645996 503.37866211 144.04956055 C480.92973042 146.18836528 458.40485697 146.24015318 435.875 146.25 C434.71401102 146.25110464 434.71401102 146.25110464 433.52956772 146.2522316 C411.4324135 146.26932772 389.51223888 146.00083096 367.5390625 143.41455078 C364.03945554 143.00462165 360.53821422 142.64927311 357.03125 142.30859375 C350.34006605 141.64241791 343.66937663 140.85642681 337 140 C335.16912842 139.76506836 335.16912842 139.76506836 333.30126953 139.52539062 C260.7623407 129.9452968 190.3440431 107.50595491 124 77 C122.99356445 76.5373877 121.98712891 76.07477539 120.95019531 75.59814453 C107.60521777 69.42527068 94.6109342 62.7349369 81.78125 55.5546875 C78.95353798 53.97402825 76.11780276 52.40847883 73.28125 50.84375 C52.0639975 39.07333339 31.94929945 25.78783537 12 12 C11.26700684 11.49436523 10.53401367 10.98873047 9.77880859 10.46777344 C6.18087347 7.98566992 2.58724844 5.49753712 -1 3 C-0.67 2.01 -0.34 1.02 0 0 Z "
     fill="#000000"
     transform="translate(2179,2432)"
     id="path9" />
  <path
     d="M0 0 C0.83273438 0.23332031 1.66546875 0.46664062 2.5234375 0.70703125 C17.05178595 5.26535261 29.16032543 15.47388638 36.31518555 28.84667969 C43.83997428 43.69171324 47.052393 59.48417315 42.4375 75.875 C36.04206387 93.4736302 25.58717076 106.4841233 8.6875 114.75 C-7.33295189 121.56769231 -23.70698425 121.79575356 -40 116 C-54.09803307 110.09449059 -66.10572858 99.81960269 -72.46484375 85.76171875 C-79.00404743 69.32841558 -80.97364531 52.69101992 -74 36 C-73.63777344 35.12085937 -73.27554688 34.24171875 -72.90234375 33.3359375 C-66.85481702 20.09287896 -56.07624151 9.32780359 -43 3 C-38.71890287 1.44952191 -34.40092803 0.16284684 -30 -1 C-29.38253906 -1.1959375 -28.76507812 -1.391875 -28.12890625 -1.59375 C-19.29845263 -3.27882739 -8.54016825 -2.76675863 0 0 Z "
     fill="#FDFDFD"
     transform="translate(2528,3019)"
     id="path10" />
  <path
     d="M0 0 C1.2375 0.33902344 2.475 0.67804687 3.75 1.02734375 C35.14996839 10.37415638 61.3491784 33.08392489 77.01171875 61.58203125 C89.79356492 86.28620682 91.68338424 109.78027994 91 137 C90.34 137 89.68 137 89 137 C88.8040625 136.12601563 88.608125 135.25203125 88.40625 134.3515625 C80.64287586 102.42803263 60.95729565 75.47358919 33.0625 58.1875 C25.63254716 53.71579802 18.13511951 50.0407971 10 47 C9.0203125 46.62359375 8.040625 46.2471875 7.03125 45.859375 C-6.03555151 41.15251639 -18.38266113 39.73475195 -32.1875 39.6875 C-33.93256836 39.67928223 -33.93256836 39.67928223 -35.71289062 39.67089844 C-43.63388267 39.7358246 -51.21386213 40.56260981 -59 42 C-59.73549072 42.135271 -60.47098145 42.27054199 -61.22875977 42.40991211 C-91.87066234 48.49908354 -120.3288827 68.38521958 -137.65234375 94.265625 C-146.15344847 107.51870198 -152.60557826 121.57081025 -156 137 C-156.33 137 -156.66 137 -157 137 C-161.13002429 112.0167383 -156.30169423 86.48180804 -145 64 C-144.6709668 63.34435059 -144.34193359 62.68870117 -144.00292969 62.01318359 C-139.64244844 53.52046164 -134.29536468 46.16369084 -128 39 C-127.31421875 38.16984375 -126.6284375 37.3396875 -125.921875 36.484375 C-107.8066377 15.14865107 -78.3119028 -0.7680619 -50.38037109 -3.82788086 C-33.38418888 -5.05683557 -16.37045872 -5.01742843 0 0 Z "
     fill="#000000"
     transform="translate(2544,2962)"
     id="path11" />
  <path
     d="M0 0 C0.66 0 1.32 0 2 0 C6.30524637 22.52248723 0.56053135 46.00096414 -12 65 C-14.79478324 68.88554454 -17.76254675 72.47813497 -21 76 C-21.77150391 76.90878906 -21.77150391 76.90878906 -22.55859375 77.8359375 C-36.18575391 92.91430173 -57.75012461 102.72365071 -77.85742188 104.21142578 C-104.03455428 105.3871212 -127.31199934 99.61975453 -147.125 81.75 C-162.43398307 67.39782838 -174.49231686 47.41719876 -176 26 C-176.10397397 22.49829305 -176.09559345 19.00281433 -176.0625 15.5 C-176.05798828 14.5821875 -176.05347656 13.664375 -176.04882812 12.71875 C-176.03716326 10.47909609 -176.02079614 8.23958455 -176 6 C-174.20612714 8.69080929 -172.85766712 11.37355461 -171.48828125 14.29296875 C-160.91927736 36.55889394 -143.65553606 52.31099562 -121 62 C-95.8047012 70.76623402 -69.80732295 68.28000723 -46 57 C-23.15094196 44.59111208 -7.86367207 24.65665401 0 0 Z "
     fill="#000000"
     transform="translate(2600,3091)"
     id="path12" />
  <path
     d="M0 0 C-6.6 2.64 -13.2 5.28 -20 8 C-20.33 7.34 -20.66 6.68 -21 6 C-21.66 5.67 -22.32 5.34 -23 5 C-19.73348625 3.96497223 -16.46122637 2.94946065 -13.1875 1.9375 C-12.25873047 1.64294922 -11.32996094 1.34839844 -10.37304688 1.04492188 C-9.48037109 0.77099609 -8.58769531 0.49707031 -7.66796875 0.21484375 C-6.84578857 -0.04176025 -6.0236084 -0.29836426 -5.17651367 -0.56274414 C-3 -1 -3 -1 0 0 Z "
     fill="#CCCCCC"
     transform="translate(3428,2329)"
     id="path13" />
  <path
     d="M0 0 C3.66172475 0.62678171 6.8818995 1.64451846 10.3125 3.0625 C11.19550781 3.42472656 12.07851562 3.78695312 12.98828125 4.16015625 C13.65214844 4.43730469 14.31601563 4.71445313 15 5 C14.67 5.99 14.34 6.98 14 8 C9.38 5.69 4.76 3.38 0 1 C0 0.67 0 0.34 0 0 Z "
     fill="#CECECE"
     transform="translate(1992,2276)"
     id="path14" />
</svg>
