<?xml version="1.0" encoding="UTF-8"?>
<svg version="1.1" xmlns="http://www.w3.org/2000/svg" width="800" height="801">
<path d="M0 0 C1.78047435 0.33500028 3.56133051 0.66797309 5.34240723 0.99975586 C12.10310894 2.2596368 18.85864217 3.54395291 25.6098938 4.85354614 C27.90126858 5.29658805 30.19352589 5.73509115 32.48666382 6.16891479 C35.71613982 6.78261382 38.94093911 7.41677945 42.16534424 8.05651855 C43.14310318 8.23874969 44.12086212 8.42098083 45.12825012 8.60873413 C53.67688578 10.34611284 53.67688578 10.34611284 56.43878174 14.4588623 C56.98232147 18.26364044 57.14977746 20.43523017 54.9241333 23.63952637 C51.47175912 26.16674566 48.29583744 26.06163166 44.17315674 26.0682373 C43.37975891 26.08477356 42.58636108 26.10130981 41.7689209 26.11834717 C39.24212905 26.16681846 36.71593893 26.18819518 34.18878174 26.2088623 C32.47260565 26.23702287 30.75645757 26.26695043 29.04034424 26.29870605 C24.83987296 26.37257666 20.63973553 26.42215617 16.43878174 26.4588623 C17.28182861 26.78499512 18.12487549 27.11112793 18.99346924 27.44714355 C20.08917236 27.88413574 21.18487549 28.32112793 22.31378174 28.7713623 C23.94960205 29.41524902 23.94960205 29.41524902 25.61846924 30.07214355 C28.43878174 31.4588623 28.43878174 31.4588623 30.43878174 34.4588623 C31.10428929 40.55934823 31.10428929 40.55934823 28.7878418 43.69030762 C25.71248 46.00567861 24.25913497 45.76427318 20.4788208 45.3182373 C19.32128296 45.18997559 18.16374512 45.06171387 16.97113037 44.92956543 C15.80545532 44.7742334 14.63978027 44.61890137 13.43878174 44.4588623 C12.41135864 44.32931152 11.38393555 44.19976074 10.32537842 44.06628418 C7.14466049 43.64380422 3.97192115 43.18065758 0.79815674 42.7088623 C-1.6995284 42.34777778 -4.19733761 41.98755067 -6.69525146 41.62805176 C-7.34777421 41.53372769 -8.00029696 41.43940363 -8.67259312 41.34222126 C-90.92222159 29.4598832 -173.83909491 21.45241054 -256.79882812 16.67889404 C-260.50912289 16.46190894 -264.21850933 16.23294613 -267.92791748 16.00134277 C-309.10103488 13.47072999 -350.27572543 13.16798926 -391.51366806 13.14878845 C-394.3144954 13.1474579 -397.11531654 13.14487812 -399.91614151 13.14100647 C-433.51348779 13.09483486 -467.01946338 13.39400048 -500.56121826 15.4588623 C-501.81981659 15.53438324 -503.07841492 15.60990417 -504.37515259 15.68771362 C-511.48514592 16.12289989 -518.58600463 16.63712395 -525.68621826 17.2088623 C-526.7096936 17.28890503 -527.73316895 17.36894775 -528.78765869 17.45141602 C-547.63125458 18.93761279 -566.37479885 21.0823455 -585.11639404 23.52819824 C-586.10356415 23.65617798 -587.09073425 23.78415771 -588.1078186 23.91601562 C-589.93892463 24.15486323 -591.76948679 24.39793793 -593.59933472 24.64624023 C-606.24050092 26.30547599 -606.24050092 26.30547599 -609.99871826 23.8963623 C-612.12789385 20.57484839 -611.98376963 18.33224984 -611.56121826 14.4588623 C-609.56121826 11.4588623 -609.56121826 11.4588623 -606.79315186 10.62390137 C-593.65131964 8.32256669 -580.43853783 6.73115645 -567.18621826 5.2088623 C-565.90156677 5.06023743 -564.61691528 4.91161255 -563.29333496 4.75848389 C-486.64546826 -4.08709228 -409.64998681 -10.27045417 -332.56121826 -13.5411377 C-331.33403076 -13.59334473 -330.10684326 -13.64555176 -328.84246826 -13.69934082 C-235.25620486 -17.6148818 -140.64105115 -17.94042614 0 0 Z " fill="#001935" transform="translate(677.5612182617188,457.5411376953125)"/>
<path d="M0 0 C3.85128492 0.00008109 7.70245045 -0.00685289 11.55371094 -0.02050781 C35.86105459 -0.10533756 59.98880736 0.36167852 84.2331543 2.18530273 C85.86649719 2.30778381 85.86649719 2.30778381 87.53283691 2.43273926 C90.22499469 2.63751068 92.91683339 2.84482801 95.6081543 3.06030273 C96.71748573 3.13996529 96.71748573 3.13996529 97.84922791 3.22123718 C101.11602382 3.55276572 103.03676587 4.03659967 105.6784668 6.03686523 C107.9739275 9.2089843 107.77769224 11.3735371 107.2331543 15.18530273 C105.6628418 17.41186523 105.6628418 17.41186523 103.2331543 19.18530273 C100.59645478 19.38038074 98.45600031 19.33096175 95.8581543 19.06030273 C93.31447946 18.84739086 90.77043433 18.63939219 88.22628784 18.43218994 C86.26358414 18.27029725 84.30125744 18.10375205 82.33938599 17.93206787 C58.29274328 15.86211654 34.27338667 15.82971987 10.15355682 15.86825562 C6.82699596 15.87284573 3.50045292 15.87344243 0.17388916 15.87329102 C-31.16571918 15.88145375 -62.38846309 16.32982076 -93.64898682 18.72798157 C-109.53598271 19.91795928 -109.53598271 19.91795928 -113.3918457 17.62280273 C-115.30896334 14.22427602 -115.31546208 12.02561739 -114.7668457 8.18530273 C-113.11310649 5.70511529 -111.75768455 4.41502819 -108.81100464 3.73184204 C-106.29310474 3.44609414 -103.79432815 3.29115221 -101.26293945 3.17358398 C-100.31161636 3.11502731 -99.36029327 3.05647064 -98.38014221 2.99613953 C-95.322273 2.81257182 -92.26366506 2.65513087 -89.2043457 2.49780273 C-87.23484707 2.38160669 -85.26544379 2.26378235 -83.29614258 2.14428711 C-77.12173337 1.77913815 -70.94510191 1.47698213 -64.7668457 1.18530273 C-63.77333099 1.13584503 -62.77981628 1.08638733 -61.75619507 1.03543091 C-41.17696086 0.03142834 -20.59883897 -0.00223435 0 0 Z " fill="#001935" transform="translate(240.766845703125,477.814697265625)"/>
</svg>
